<svg width="385" height="281" viewBox="0 0 385 281" fill="none" xmlns="http://www.w3.org/2000/svg">
<circle cx="16" cy="16" r="16" fill="#27292A" fill-opacity="0.6"/>
<path d="M8.00341 24L9.15261 19.7772C8.39538 18.4791 7.99754 17.0028 8.00001 15.5C8.00001 10.8054 11.8055 7 16.5 7C21.1946 7 25 10.8054 25 15.5C25 20.1945 21.1946 24 16.5 24C14.9979 24.0024 13.5222 23.6049 12.2245 22.8482L8.00341 24ZM13.4324 11.5118C13.3226 11.5186 13.2153 11.5475 13.117 11.5968C13.0248 11.649 12.9406 11.7143 12.8671 11.7906C12.7651 11.8866 12.7073 11.9699 12.6453 12.0507C12.3311 12.4595 12.1621 12.9614 12.165 13.477C12.1667 13.8935 12.2755 14.2989 12.4455 14.678C12.7932 15.4447 13.3652 16.2565 14.1209 17.0087C14.3028 17.1898 14.4804 17.3717 14.6717 17.5408C15.6095 18.3666 16.7272 18.9621 17.9357 19.2799L18.4193 19.3539C18.5766 19.3624 18.7338 19.3505 18.8919 19.3428C19.1395 19.3301 19.3812 19.263 19.6 19.1465C19.7411 19.0717 19.8074 19.0343 19.9255 18.9595C19.9255 18.9595 19.9621 18.9357 20.0318 18.883C20.1465 18.798 20.2171 18.7376 20.3123 18.6382C20.3828 18.5651 20.444 18.4792 20.4908 18.3815C20.5571 18.2429 20.6234 17.9786 20.6506 17.7584C20.671 17.5901 20.665 17.4983 20.6625 17.4414C20.6591 17.3504 20.5834 17.2561 20.501 17.2161L20.0063 16.9943C20.0063 16.9943 19.2668 16.6721 18.8154 16.4664C18.7678 16.4457 18.7168 16.4339 18.665 16.4316C18.6068 16.4256 18.548 16.4322 18.4926 16.4508C18.4372 16.4694 18.3864 16.4997 18.3437 16.5395V16.5378C18.3394 16.5378 18.2825 16.5863 17.6679 17.3309C17.6326 17.3783 17.584 17.4141 17.5283 17.4338C17.4726 17.4535 17.4123 17.4561 17.3551 17.4414C17.2997 17.4266 17.2455 17.4078 17.1928 17.3853C17.0874 17.3411 17.0508 17.3241 16.9786 17.2926L16.9743 17.2909C16.488 17.0786 16.0378 16.7919 15.6398 16.4409C15.5327 16.3474 15.4333 16.2454 15.3313 16.1468C14.9968 15.8266 14.7054 15.4643 14.4643 15.069L14.4141 14.9883C14.3781 14.934 14.349 14.8755 14.3274 14.814C14.2951 14.6891 14.3793 14.5888 14.3793 14.5888C14.3793 14.5888 14.5858 14.3627 14.6819 14.2403C14.7618 14.1386 14.8365 14.0327 14.9054 13.9232C15.0057 13.7617 15.0372 13.596 14.9845 13.4676C14.7465 12.8862 14.5 12.3074 14.2467 11.7328C14.1965 11.6189 14.0478 11.5373 13.9126 11.5211C13.8667 11.516 13.8208 11.5109 13.7749 11.5075C13.6608 11.5019 13.5464 11.5039 13.4324 11.5118Z" fill="white"/>
<circle cx="16" cy="68" r="16" fill="#27292A" fill-opacity="0.6"/>
<g clip-path="url(#clip0_16_3512)">
<path d="M22.2004 70.0997L19.4556 68.8817C19.1841 68.7616 18.8805 68.7344 18.592 68.8043C18.3034 68.8742 18.046 69.0373 17.8596 69.2684L17.0309 70.3056C15.6881 69.4513 14.5492 68.3127 13.6946 66.9701L14.7306 66.1425C14.9626 65.9564 15.1265 65.6987 15.1968 65.4097C15.2671 65.1207 15.2397 64.8165 15.1191 64.5446L13.9002 61.7994C13.7708 61.5078 13.542 61.2717 13.2547 61.1331C12.9674 60.9945 12.6402 60.9624 12.3314 61.0426L10.0109 61.6454C9.69079 61.729 9.41245 61.9271 9.22861 62.2022C9.04477 62.4773 8.96821 62.8103 9.01341 63.138C9.4431 66.1281 10.8298 68.8985 12.9659 71.0345C15.102 73.1705 17.8725 74.557 20.8626 74.9866C21.0404 75.0117 21.2215 75.0009 21.3952 74.9547C21.5688 74.9086 21.7313 74.828 21.8732 74.7179C22.1094 74.5348 22.2785 74.2789 22.3544 73.9899L22.9564 71.6686C23.0377 71.3599 23.0062 71.0323 22.8676 70.7448C22.729 70.4572 22.4925 70.2285 22.2004 70.0997Z" fill="white"/>
</g>
<circle cx="16" cy="120" r="16" fill="#27292A" fill-opacity="0.6"/>
<path fill-rule="evenodd" clip-rule="evenodd" d="M18.9 113.5C18.9 112 17.418 111 16.26 111C15.454 111 15.391 111.612 15.267 112.82C15.212 113.35 15.146 113.994 15 114.75C14.614 116.752 13.28 119.31 12.004 120.075V126C12 128.25 12.75 129 16 129H19.773C21.949 129 22.476 127.567 22.672 127.036L22.685 127C22.799 126.694 23.043 126.453 23.323 126.18C23.633 125.874 23.987 125.527 24.25 125C24.561 124.377 24.52 123.823 24.483 123.33C24.46 123.031 24.439 122.755 24.5 122.5C24.564 122.23 24.646 122.025 24.725 121.829C24.868 121.473 25 121.143 25 120.5C25 119 24.252 118.002 22.685 118.002H18.5C18.5 118.002 18.9 115 18.9 113.5ZM8.5 119C8.10218 119 7.72064 119.158 7.43934 119.439C7.15804 119.721 7 120.102 7 120.5V127.5C7 127.898 7.15804 128.279 7.43934 128.561C7.72064 128.842 8.10218 129 8.5 129C8.89782 129 9.27936 128.842 9.56066 128.561C9.84196 128.279 10 127.898 10 127.5V120.5C10 120.102 9.84196 119.721 9.56066 119.439C9.27936 119.158 8.89782 119 8.5 119Z" fill="white"/>
<g filter="url(#filter0_d_16_3512)">
<path d="M3.55 149.496L5.818 148.866V157H7.456V147.046L3.55 147.928V149.496ZM10.3069 156.286C10.3069 156.547 10.4002 156.776 10.5869 156.972C10.7829 157.168 11.0162 157.266 11.2869 157.266C11.5762 157.266 11.8142 157.168 12.0009 156.972C12.1875 156.776 12.2809 156.547 12.2809 156.286C12.2809 156.015 12.1875 155.787 12.0009 155.6C11.8142 155.404 11.5762 155.306 11.2869 155.306C11.0162 155.306 10.7829 155.404 10.5869 155.6C10.4002 155.787 10.3069 156.015 10.3069 156.286ZM21.2352 153.808C21.2352 153.145 21.1045 152.571 20.8432 152.086C20.5818 151.601 20.2272 151.223 19.7792 150.952C19.3312 150.681 18.8365 150.546 18.2952 150.546C18.0245 150.546 17.7585 150.574 17.4972 150.63C17.2358 150.686 16.9838 150.775 16.7412 150.896L17.3572 148.656H21.1372V147.2H16.1112L14.7812 152.59C15.1172 152.385 15.4252 152.226 15.7052 152.114C15.9945 152.002 16.2745 151.927 16.5452 151.89C16.8252 151.843 17.1052 151.82 17.3852 151.82C17.7678 151.82 18.1178 151.895 18.4352 152.044C18.7525 152.193 19.0045 152.408 19.1912 152.688C19.3778 152.968 19.4712 153.309 19.4712 153.71C19.4712 154.102 19.3872 154.443 19.2192 154.732C19.0605 155.021 18.8272 155.241 18.5192 155.39C18.2112 155.539 17.8332 155.614 17.3852 155.614C17.0772 155.614 16.7692 155.553 16.4612 155.432C16.1532 155.301 15.8638 155.133 15.5932 154.928C15.3318 154.713 15.1032 154.48 14.9072 154.228L13.9412 155.418C14.1932 155.726 14.4872 156.015 14.8232 156.286C15.1592 156.547 15.5558 156.757 16.0132 156.916C16.4705 157.075 16.9978 157.154 17.5952 157.154C18.0712 157.154 18.5238 157.089 18.9532 156.958C19.3918 156.818 19.7838 156.613 20.1292 156.342C20.4745 156.062 20.7452 155.712 20.9412 155.292C21.1372 154.872 21.2352 154.377 21.2352 153.808ZM22.701 146.08V157H24.185V146.08H22.701ZM26.551 150.56L23.765 153.22L26.845 157H28.679L25.627 153.22L28.399 150.56H26.551Z" fill="white"/>
</g>
<circle cx="16" cy="196" r="16" fill="#27292A" fill-opacity="0.6"/>
<path d="M24 187.889H7.99997C7.76422 187.889 7.53813 187.983 7.37143 188.149C7.20473 188.316 7.11108 188.542 7.11108 188.778V201.222C7.11108 201.458 7.20473 201.684 7.37143 201.851C7.53813 202.017 7.76422 202.111 7.99997 202.111H24C24.2357 202.111 24.4618 202.017 24.6285 201.851C24.7952 201.684 24.8889 201.458 24.8889 201.222V188.778C24.8889 188.542 24.7952 188.316 24.6285 188.149C24.4618 187.983 24.2357 187.889 24 187.889ZM11.5555 190.556C11.9071 190.556 12.2509 190.66 12.5432 190.855C12.8356 191.051 13.0634 191.328 13.198 191.653C13.3325 191.978 13.3677 192.335 13.2991 192.68C13.2306 193.025 13.0612 193.342 12.8126 193.59C12.564 193.839 12.2472 194.008 11.9024 194.077C11.5575 194.146 11.2 194.11 10.8752 193.976C10.5504 193.841 10.2727 193.613 10.0774 193.321C9.88202 193.029 9.77775 192.685 9.77775 192.333C9.77775 191.862 9.96505 191.41 10.2984 191.076C10.6318 190.743 11.084 190.556 11.5555 190.556ZM23.1111 200.333H8.88886V198.852L12.4444 195.889L14.984 197.794L19.5555 193.222L23.1111 197.963V200.333Z" fill="white"/>
<g filter="url(#filter1_d_16_3512)">
<path d="M8.55 218.496L10.818 217.866V226H12.456V216.046L8.55 216.928V218.496ZM16.3149 221.1C16.3149 220.577 16.3662 220.097 16.4689 219.658C16.5715 219.219 16.7162 218.841 16.9029 218.524C17.0989 218.207 17.3322 217.964 17.6029 217.796C17.8735 217.619 18.1722 217.53 18.4989 217.53C18.8442 217.53 19.1475 217.619 19.4089 217.796C19.6795 217.964 19.9082 218.207 20.0949 218.524C20.2909 218.841 20.4402 219.219 20.5429 219.658C20.6455 220.097 20.6969 220.577 20.6969 221.1C20.6969 221.623 20.6455 222.103 20.5429 222.542C20.4402 222.981 20.2909 223.359 20.0949 223.676C19.9082 223.993 19.6795 224.241 19.4089 224.418C19.1475 224.586 18.8442 224.67 18.4989 224.67C18.1722 224.67 17.8735 224.586 17.6029 224.418C17.3322 224.241 17.0989 223.993 16.9029 223.676C16.7162 223.359 16.5715 222.981 16.4689 222.542C16.3662 222.103 16.3149 221.623 16.3149 221.1ZM14.6909 221.1C14.6909 222.117 14.8495 223.004 15.1669 223.76C15.4935 224.516 15.9415 225.104 16.5109 225.524C17.0895 225.944 17.7522 226.154 18.4989 226.154C19.2642 226.154 19.9315 225.944 20.5009 225.524C21.0795 225.104 21.5275 224.516 21.8449 223.76C22.1622 223.004 22.3209 222.117 22.3209 221.1C22.3209 220.083 22.1622 219.196 21.8449 218.44C21.5275 217.684 21.0795 217.096 20.5009 216.676C19.9315 216.256 19.2642 216.046 18.4989 216.046C17.7522 216.046 17.0895 216.256 16.5109 216.676C15.9415 217.096 15.4935 217.684 15.1669 218.44C14.8495 219.196 14.6909 220.083 14.6909 221.1Z" fill="white"/>
</g>
<circle cx="16" cy="265" r="16" fill="#27292A" fill-opacity="0.6"/>
<path d="M22.5882 264.176L17.4118 259V262.235C13.7882 262.235 9 263.659 9 270C10.7471 267.024 12.5588 266.118 17.4118 266.118V269.353L22.5882 264.176Z" fill="white" stroke="white" stroke-width="2" stroke-linecap="round" stroke-linejoin="round"/>
<path d="M153.048 240L157.592 230.112H151.608V228.576H159.448V229.808L154.92 240H153.048ZM168.588 234.272C168.588 235.499 168.46 236.555 168.204 237.44C167.948 238.315 167.538 238.987 166.972 239.456C166.407 239.925 165.655 240.16 164.716 240.16C163.394 240.16 162.423 239.643 161.804 238.608C161.186 237.563 160.876 236.117 160.876 234.272C160.876 233.035 160.999 231.979 161.244 231.104C161.5 230.229 161.911 229.563 162.476 229.104C163.042 228.635 163.788 228.4 164.716 228.4C165.591 228.4 166.311 228.635 166.876 229.104C167.452 229.563 167.879 230.229 168.156 231.104C168.444 231.979 168.588 233.035 168.588 234.272ZM162.604 234.272C162.604 235.755 162.759 236.864 163.068 237.6C163.388 238.336 163.938 238.704 164.716 238.704C165.484 238.704 166.028 238.341 166.348 237.616C166.679 236.88 166.844 235.765 166.844 234.272C166.844 233.291 166.77 232.475 166.62 231.824C166.482 231.163 166.258 230.672 165.948 230.352C165.65 230.021 165.239 229.856 164.716 229.856C164.194 229.856 163.778 230.021 163.468 230.352C163.17 230.672 162.951 231.163 162.812 231.824C162.674 232.475 162.604 233.291 162.604 234.272ZM177.745 234.272C177.745 235.499 177.617 236.555 177.361 237.44C177.105 238.315 176.694 238.987 176.129 239.456C175.563 239.925 174.811 240.16 173.873 240.16C172.55 240.16 171.579 239.643 170.961 238.608C170.342 237.563 170.033 236.117 170.033 234.272C170.033 233.035 170.155 231.979 170.401 231.104C170.657 230.229 171.067 229.563 171.633 229.104C172.198 228.635 172.945 228.4 173.873 228.4C174.747 228.4 175.467 228.635 176.033 229.104C176.609 229.563 177.035 230.229 177.312 231.104C177.601 231.979 177.745 233.035 177.745 234.272ZM171.761 234.272C171.761 235.755 171.915 236.864 172.225 237.6C172.545 238.336 173.094 238.704 173.873 238.704C174.641 238.704 175.185 238.341 175.505 237.616C175.835 236.88 176.001 235.765 176.001 234.272C176.001 233.291 175.926 232.475 175.777 231.824C175.638 231.163 175.414 230.672 175.105 230.352C174.806 230.021 174.395 229.856 173.873 229.856C173.35 229.856 172.934 230.021 172.625 230.352C172.326 230.672 172.107 231.163 171.969 231.824C171.83 232.475 171.761 233.291 171.761 234.272Z" fill="white"/>
<g clip-path="url(#clip1_16_3512)">
<path d="M191.197 240.217H204.008C204.304 240.217 204.501 240.02 204.501 239.725V231.841H205.487C205.782 231.841 205.979 231.643 205.979 231.348V229.377C205.979 229.229 205.93 229.081 205.832 228.983L197.948 222.084C197.856 222.012 197.744 221.973 197.628 221.973C197.511 221.973 197.399 222.012 197.307 222.084L189.423 228.983C189.275 229.081 189.225 229.229 189.225 229.377V231.348C189.225 231.643 189.423 231.841 189.718 231.841H190.704V239.725C190.704 240.02 190.901 240.217 191.197 240.217ZM199.081 239.232V233.811H201.052V239.232H199.081ZM203.516 239.232H202.038V233.319C202.038 233.023 201.84 232.826 201.545 232.826H198.588C198.292 232.826 198.095 233.023 198.095 233.319V239.232H191.69V230.609L197.603 225.583L203.516 230.559V239.232ZM190.211 230.855V229.623L197.603 223.119L204.994 229.574V230.855H204.501V230.362C204.501 230.215 204.451 230.067 204.353 229.968L197.948 224.548C197.856 224.476 197.744 224.437 197.628 224.437C197.511 224.437 197.399 224.476 197.307 224.548L190.901 229.968C190.753 230.067 190.704 230.215 190.704 230.362V230.855H190.211Z" fill="white"/>
<path d="M196.617 232.826H193.66C193.365 232.826 193.168 233.023 193.168 233.319V236.275C193.168 236.571 193.365 236.768 193.66 236.768H196.617C196.913 236.768 197.11 236.571 197.11 236.275V233.319C197.11 233.023 196.913 232.826 196.617 232.826ZM196.124 235.783H194.153V233.811H196.124V235.783ZM188.536 239.084C188.289 238.936 187.994 239.035 187.846 239.232L187.747 239.478V224.351L187.846 224.548C187.944 224.696 188.092 224.794 188.289 224.794C188.388 224.794 188.487 224.794 188.536 224.745C188.782 224.597 188.831 224.302 188.683 224.055L187.649 222.33C187.452 222.035 187.008 222.035 186.811 222.33L185.776 224.006C185.628 224.252 185.727 224.548 185.924 224.696C186.17 224.843 186.466 224.745 186.614 224.548L186.762 224.351V239.478L186.663 239.281C186.515 239.035 186.22 238.985 185.973 239.133C185.727 239.232 185.628 239.528 185.776 239.774L186.811 241.449C186.909 241.597 187.057 241.696 187.255 241.696C187.452 241.696 187.6 241.597 187.698 241.449L188.733 239.774C188.831 239.528 188.782 239.232 188.536 239.084ZM206.472 242.287L204.797 241.252C204.551 241.104 204.255 241.203 204.107 241.4C203.959 241.646 204.058 241.942 204.255 242.09L204.452 242.189H190.803L191 242.09C191.246 241.942 191.295 241.646 191.147 241.4C191 241.154 190.704 241.104 190.458 241.252L188.782 242.287C188.634 242.385 188.536 242.533 188.536 242.73C188.536 242.928 188.634 243.075 188.782 243.174L190.458 244.209C190.556 244.258 190.605 244.258 190.704 244.258C190.852 244.258 191.049 244.159 191.147 244.011C191.295 243.765 191.197 243.47 191 243.322L190.803 243.174H204.452L204.255 243.272C204.008 243.42 203.959 243.716 204.107 243.962C204.205 244.11 204.353 244.209 204.551 244.209C204.649 244.209 204.747 244.209 204.797 244.159L206.472 243.125C206.62 243.026 206.719 242.878 206.719 242.681C206.719 242.484 206.571 242.336 206.472 242.287Z" fill="white"/>
</g>
<path d="M113.422 258.992C113.646 258.945 113.865 258.903 114.08 258.866C114.294 258.819 114.5 258.782 114.696 258.754C114.425 258.577 114.201 258.32 114.024 257.984C113.856 257.639 113.772 257.261 113.772 256.85C113.772 256.281 113.907 255.791 114.178 255.38C114.42 254.997 114.766 254.703 115.214 254.498C115.662 254.283 116.184 254.176 116.782 254.176C117.146 254.176 117.477 254.213 117.776 254.288C118.074 254.353 118.34 254.451 118.574 254.582L118.224 255.8C118.009 255.688 117.79 255.604 117.566 255.548C117.342 255.492 117.113 255.464 116.88 255.464C116.376 255.464 115.984 255.595 115.704 255.856C115.424 256.108 115.284 256.495 115.284 257.018C115.284 257.345 115.363 257.639 115.522 257.9C115.68 258.161 115.886 258.353 116.138 258.474L116.46 258.432C116.833 258.385 117.183 258.343 117.51 258.306C117.846 258.269 118.135 258.241 118.378 258.222C118.63 258.194 118.821 258.175 118.952 258.166V259.496C118.746 259.496 118.457 259.51 118.084 259.538C117.72 259.566 117.314 259.608 116.866 259.664C116.427 259.711 115.984 259.767 115.536 259.832C115.088 259.888 114.677 259.944 114.304 260C113.93 260.065 113.636 260.121 113.422 260.168V258.992ZM124.285 258.712C124.332 258.712 124.355 258.731 124.355 258.768V259.93C124.355 259.977 124.332 260 124.285 260H120.939V249.36H122.465V258.712H124.285ZM126.679 251.88C126.427 251.88 126.226 251.801 126.077 251.642C125.928 251.483 125.853 251.264 125.853 250.984C125.853 250.695 125.923 250.475 126.063 250.326C126.212 250.167 126.418 250.088 126.679 250.088C126.95 250.088 127.155 250.167 127.295 250.326C127.444 250.485 127.519 250.704 127.519 250.984C127.519 251.255 127.444 251.474 127.295 251.642C127.146 251.801 126.94 251.88 126.679 251.88ZM124.145 260C124.098 260 124.075 259.977 124.075 259.93V258.768C124.075 258.731 124.098 258.712 124.145 258.712H125.965V253.168H127.491V258.712H129.311C129.358 258.712 129.381 258.731 129.381 258.768V259.93C129.381 259.977 129.358 260 129.311 260H124.145ZM131.682 263.038C131.43 263.038 131.229 262.959 131.08 262.8C130.931 262.641 130.856 262.422 130.856 262.142C130.856 261.853 130.926 261.629 131.066 261.47C131.215 261.321 131.421 261.246 131.682 261.246C131.953 261.246 132.158 261.325 132.298 261.484C132.447 261.643 132.522 261.862 132.522 262.142C132.522 262.413 132.447 262.627 132.298 262.786C132.149 262.954 131.943 263.038 131.682 263.038ZM129.176 260C129.129 260 129.106 259.977 129.106 259.93V258.768C129.106 258.731 129.129 258.712 129.176 258.712H130.996V253.168H132.522V258.712H134.342C134.389 258.712 134.412 258.731 134.412 258.768V259.93C134.412 259.977 134.389 260 134.342 260H129.176ZM134.207 260C134.161 260 134.137 259.977 134.137 259.93V258.768C134.137 258.731 134.161 258.712 134.207 258.712H136.027V249.36H137.553V260H134.207ZM140.353 249.36H141.879V260H140.353V249.36ZM152.329 253.154C152.087 253.154 151.886 253.084 151.727 252.944C151.569 252.795 151.489 252.566 151.489 252.258C151.489 251.959 151.569 251.735 151.727 251.586C151.886 251.437 152.087 251.362 152.329 251.362C152.591 251.362 152.791 251.441 152.931 251.6C153.081 251.759 153.155 251.978 153.155 252.258C153.155 252.547 153.081 252.771 152.931 252.93C152.782 253.079 152.581 253.154 152.329 253.154ZM154.737 253.154C154.476 253.154 154.271 253.079 154.121 252.93C153.972 252.771 153.897 252.547 153.897 252.258C153.897 251.978 153.972 251.759 154.121 251.6C154.271 251.441 154.476 251.362 154.737 251.362C154.999 251.362 155.199 251.446 155.339 251.614C155.489 251.773 155.563 251.987 155.563 252.258C155.563 252.529 155.489 252.748 155.339 252.916C155.199 253.075 154.999 253.154 154.737 253.154ZM151.615 260C150.794 260 150.141 259.757 149.655 259.272C149.179 258.777 148.941 258.105 148.941 257.256C148.941 257.041 148.955 256.803 148.983 256.542C149.021 256.281 149.067 256.029 149.123 255.786C149.189 255.543 149.254 255.329 149.319 255.142H150.691C150.626 255.459 150.575 255.781 150.537 256.108C150.5 256.435 150.481 256.761 150.481 257.088C150.481 257.573 150.603 257.965 150.845 258.264C151.088 258.563 151.405 258.712 151.797 258.712H156.655V253.168H158.153V260H151.615ZM164.084 258.712C164.131 258.712 164.154 258.731 164.154 258.768V259.93C164.154 259.977 164.131 260 164.084 260H160.738V249.36H162.264V258.712H164.084ZM163.944 260C163.897 260 163.874 259.977 163.874 259.93V258.768C163.874 258.731 163.897 258.712 163.944 258.712H169.838C169.716 258.591 169.6 258.423 169.488 258.208C169.385 257.993 169.287 257.732 169.194 257.424C169.11 257.107 169.03 256.743 168.956 256.332C168.89 255.968 168.811 255.655 168.718 255.394C168.624 255.133 168.508 254.923 168.368 254.764C168.237 254.605 168.074 254.493 167.878 254.428C167.691 254.353 167.472 254.316 167.22 254.316C166.902 254.316 166.58 254.363 166.254 254.456C165.936 254.54 165.6 254.675 165.246 254.862L164.714 253.7C165.115 253.457 165.535 253.285 165.974 253.182C166.412 253.079 166.87 253.028 167.346 253.028C167.644 253.028 167.91 253.051 168.144 253.098C168.386 253.135 168.601 253.201 168.788 253.294C169.068 253.425 169.31 253.602 169.516 253.826C169.721 254.041 169.889 254.316 170.02 254.652C170.16 254.988 170.272 255.403 170.356 255.898C170.43 256.374 170.514 256.799 170.608 257.172C170.71 257.536 170.822 257.849 170.944 258.11C171.065 258.371 171.2 258.572 171.35 258.712H172.274C172.32 258.712 172.344 258.731 172.344 258.768V259.93C172.344 259.977 172.32 260 172.274 260H163.944ZM172.133 260C172.086 260 172.063 259.977 172.063 259.93V258.768C172.063 258.731 172.086 258.712 172.133 258.712H173.827V249.36H175.311V255.982C175.6 255.329 175.936 254.783 176.319 254.344C176.711 253.905 177.145 253.579 177.621 253.364C178.097 253.14 178.61 253.028 179.161 253.028C180.244 253.028 181.06 253.322 181.611 253.91C182.171 254.489 182.451 255.394 182.451 256.626V258.712H184.299C184.346 258.712 184.369 258.731 184.369 258.768V259.93C184.369 259.977 184.346 260 184.299 260H172.133ZM180.967 258.712V256.654C180.967 255.851 180.79 255.263 180.435 254.89C180.08 254.507 179.539 254.316 178.811 254.316C178.354 254.316 177.92 254.437 177.509 254.68C177.098 254.923 176.706 255.287 176.333 255.772C175.969 256.257 175.628 256.859 175.311 257.578V258.712H180.967ZM193.586 260C193.176 260 192.788 259.925 192.424 259.776C192.07 259.617 191.715 259.356 191.36 258.992C191.136 259.3 190.842 259.547 190.478 259.734C190.124 259.911 189.704 260 189.218 260H184.164C184.118 260 184.094 259.977 184.094 259.93V258.768C184.094 258.731 184.118 258.712 184.164 258.712H186.082V254.26H187.566V258.712H188.98C189.428 258.712 189.774 258.572 190.016 258.292C190.259 258.003 190.38 257.601 190.38 257.088V254.26H191.864V257.186C191.864 257.279 191.86 257.368 191.85 257.452C191.85 257.536 191.846 257.62 191.836 257.704C192.07 258.077 192.317 258.339 192.578 258.488C192.84 258.637 193.171 258.712 193.572 258.712H194.44V253.168H195.924V258.712H197.786C197.833 258.712 197.856 258.731 197.856 258.768V259.93C197.856 259.977 197.833 260 197.786 260H193.586ZM197.645 260C197.598 260 197.575 259.977 197.575 259.93V258.768C197.575 258.731 197.598 258.712 197.645 258.712H199.325C199.166 258.311 199.05 257.923 198.975 257.55C198.9 257.177 198.863 256.817 198.863 256.472C198.863 256.061 198.91 255.655 199.003 255.254C199.106 254.843 199.25 254.475 199.437 254.148C199.81 253.868 200.23 253.649 200.697 253.49C201.164 253.331 201.621 253.252 202.069 253.252C202.666 253.252 203.198 253.383 203.665 253.644C204.132 253.905 204.491 254.279 204.743 254.764C205.004 255.249 205.135 255.8 205.135 256.416C205.135 256.789 205.098 257.135 205.023 257.452C204.958 257.76 204.855 258.049 204.715 258.32C204.416 258.861 204.006 259.277 203.483 259.566C202.97 259.855 202.386 260 201.733 260H197.645ZM200.347 256.416C200.347 256.78 200.38 257.149 200.445 257.522C200.51 257.886 200.632 258.283 200.809 258.712H201.649C202.05 258.712 202.396 258.619 202.685 258.432C202.974 258.245 203.198 257.984 203.357 257.648C203.516 257.303 203.595 256.892 203.595 256.416C203.595 255.856 203.446 255.403 203.147 255.058C202.858 254.713 202.494 254.54 202.055 254.54C201.784 254.54 201.518 254.587 201.257 254.68C200.996 254.773 200.753 254.895 200.529 255.044C200.454 255.259 200.403 255.478 200.375 255.702C200.356 255.926 200.347 256.164 200.347 256.416Z" fill="white"/>
<path d="M253.416 240H245.72V238.656L248.68 235.68C249.256 235.093 249.731 234.587 250.104 234.16C250.488 233.723 250.771 233.307 250.952 232.912C251.144 232.517 251.24 232.085 251.24 231.616C251.24 231.051 251.075 230.624 250.744 230.336C250.413 230.037 249.976 229.888 249.432 229.888C248.92 229.888 248.451 229.989 248.024 230.192C247.608 230.384 247.181 230.656 246.744 231.008L245.8 229.856C246.109 229.589 246.445 229.349 246.808 229.136C247.171 228.912 247.571 228.736 248.008 228.608C248.456 228.48 248.952 228.416 249.496 228.416C250.221 228.416 250.845 228.544 251.368 228.8C251.891 229.056 252.291 229.413 252.568 229.872C252.856 230.32 253 230.853 253 231.472C253 232.08 252.877 232.645 252.632 233.168C252.387 233.691 252.04 234.208 251.592 234.72C251.144 235.221 250.611 235.771 249.992 236.368L247.912 238.384V238.464H253.416V240ZM257.228 238.32C257.132 238.693 257.01 239.099 256.86 239.536C256.711 239.973 256.546 240.405 256.364 240.832C256.194 241.269 256.023 241.68 255.852 242.064H254.812C254.919 241.659 255.02 241.221 255.116 240.752C255.223 240.293 255.319 239.84 255.404 239.392C255.49 238.933 255.559 238.517 255.612 238.144H257.116L257.228 238.32ZM266.422 231.216C266.422 231.728 266.32 232.176 266.118 232.56C265.915 232.933 265.632 233.237 265.27 233.472C264.918 233.707 264.502 233.877 264.022 233.984V234.048C264.939 234.155 265.627 234.437 266.086 234.896C266.544 235.355 266.774 235.963 266.774 236.72C266.774 237.381 266.614 237.973 266.294 238.496C265.984 239.019 265.499 239.429 264.838 239.728C264.187 240.016 263.344 240.16 262.31 240.16C261.702 240.16 261.136 240.112 260.614 240.016C260.091 239.92 259.595 239.76 259.126 239.536V237.984C259.606 238.219 260.118 238.405 260.662 238.544C261.216 238.672 261.739 238.736 262.23 238.736C263.2 238.736 263.894 238.555 264.31 238.192C264.736 237.819 264.95 237.307 264.95 236.656C264.95 236.229 264.838 235.883 264.614 235.616C264.39 235.349 264.048 235.152 263.59 235.024C263.142 234.885 262.576 234.816 261.894 234.816H260.87V233.408H261.91C262.56 233.408 263.088 233.328 263.494 233.168C263.899 232.997 264.198 232.768 264.39 232.48C264.582 232.181 264.678 231.84 264.678 231.456C264.678 230.944 264.507 230.549 264.166 230.272C263.835 229.995 263.36 229.856 262.742 229.856C262.347 229.856 261.99 229.899 261.67 229.984C261.35 230.069 261.056 230.181 260.789 230.32C260.523 230.459 260.262 230.608 260.006 230.768L259.174 229.584C259.59 229.264 260.096 228.992 260.694 228.768C261.302 228.533 262 228.416 262.79 228.416C263.974 228.416 264.875 228.672 265.494 229.184C266.112 229.696 266.422 230.373 266.422 231.216Z" fill="white"/>
<g clip-path="url(#clip2_16_3512)">
<path d="M298.755 231.977H298.356V223.593C298.358 223.121 298.267 222.653 298.087 222.216C297.907 221.779 297.642 221.382 297.308 221.048C296.974 220.714 296.577 220.449 296.141 220.27C295.704 220.09 295.236 219.998 294.763 220C292.996 220 291.726 221.31 291.583 223.23C290.655 223.405 289.973 224.204 289.973 225.19C289.973 225.429 290.132 225.589 290.372 225.589H293.566C293.805 225.589 293.965 225.429 293.965 225.19C293.965 224.215 293.297 223.423 292.385 223.236C292.504 221.967 293.266 220.798 294.763 220.798C296.32 220.798 297.558 222.036 297.558 223.593V231.976H285.543C285.362 231.056 284.566 230.38 283.585 230.38C283.186 229.901 282.627 229.581 281.988 229.581C281.23 229.581 280.551 230.02 280.232 230.659C279.913 230.5 279.553 230.38 279.194 230.38C278.213 230.38 277.417 231.056 277.236 231.976H277.198C276.519 231.976 276 232.496 276 233.174C276 233.853 276.519 234.372 277.198 234.372H277.678L278.755 238.644C279.074 239.881 280.192 240.76 281.469 240.76H281.789L281.27 241.797C281.15 241.997 281.23 242.237 281.43 242.316C281.47 242.356 281.55 242.356 281.589 242.356C281.749 242.356 281.869 242.276 281.949 242.157L282.647 240.759H293.725L294.404 242.117C294.484 242.276 294.604 242.356 294.764 242.356C294.843 242.356 294.883 242.356 294.923 242.276C295.083 242.196 295.163 241.957 295.083 241.758L294.583 240.757C295.819 240.713 296.888 239.85 297.199 238.683L298.286 234.372H298.756C299.435 234.372 299.953 233.853 299.953 233.174C299.953 232.495 299.434 231.977 298.755 231.977ZM293.126 224.79H290.85C291.01 224.311 291.489 223.992 292.008 223.992C292.527 223.992 292.967 224.311 293.126 224.79ZM279.194 231.178C279.553 231.178 279.873 231.338 280.152 231.617C280.232 231.737 280.391 231.777 280.551 231.737C280.711 231.697 280.79 231.577 280.831 231.418C280.95 230.819 281.429 230.38 282.028 230.38C282.468 230.38 282.867 230.579 283.066 230.979C283.146 231.138 283.346 231.218 283.505 231.178H283.625C284.144 231.178 284.583 231.497 284.743 231.977H278.076C278.236 231.497 278.675 231.178 279.194 231.178ZM296.48 238.444C296.24 239.322 295.442 239.961 294.524 239.961H281.509C280.591 239.961 279.793 239.322 279.553 238.444L278.515 234.372H297.438L296.48 238.444ZM298.755 233.574H277.198C276.958 233.574 276.799 233.414 276.799 233.174C276.799 232.935 276.958 232.775 277.198 232.775H298.755C298.995 232.775 299.155 232.935 299.155 233.174C299.155 233.414 298.995 233.574 298.755 233.574Z" fill="white"/>
<path d="M290.372 227.385C290.611 227.385 290.771 227.226 290.771 226.986V226.787C290.771 226.547 290.611 226.388 290.372 226.388C290.132 226.388 289.973 226.547 289.973 226.787V226.986C289.973 227.226 290.132 227.385 290.372 227.385ZM290.372 229.222C290.611 229.222 290.771 229.022 290.771 228.823V228.384C290.771 228.144 290.611 227.984 290.372 227.984C290.132 227.984 289.973 228.144 289.973 228.384V228.823C289.973 229.062 290.132 229.222 290.372 229.222ZM290.372 230.779C290.611 230.779 290.771 230.619 290.771 230.38V230.18C290.771 229.941 290.611 229.781 290.372 229.781C290.132 229.781 289.973 229.941 289.973 230.18V230.38C289.973 230.619 290.132 230.779 290.372 230.779ZM291.969 227.385C292.208 227.385 292.368 227.226 292.368 226.986V226.787C292.368 226.547 292.208 226.388 291.969 226.388C291.729 226.388 291.569 226.547 291.569 226.787V226.986C291.569 227.226 291.729 227.385 291.969 227.385ZM291.569 228.823C291.569 229.062 291.729 229.222 291.969 229.222C292.208 229.222 292.368 229.022 292.368 228.823V228.384C292.368 228.144 292.208 227.984 291.969 227.984C291.729 227.984 291.569 228.144 291.569 228.384V228.823ZM291.569 230.38C291.569 230.619 291.729 230.779 291.969 230.779C292.208 230.779 292.368 230.619 292.368 230.38V230.18C292.368 229.941 292.208 229.781 291.969 229.781C291.729 229.781 291.569 229.941 291.569 230.18V230.38ZM293.566 227.385C293.805 227.385 293.965 227.226 293.965 226.986V226.787C293.965 226.547 293.805 226.388 293.566 226.388C293.326 226.388 293.166 226.547 293.166 226.787V226.986C293.166 227.226 293.326 227.385 293.566 227.385ZM293.166 228.823C293.166 229.062 293.326 229.222 293.566 229.222C293.805 229.222 293.965 229.022 293.965 228.823V228.384C293.965 228.144 293.805 227.984 293.566 227.984C293.326 227.984 293.166 228.144 293.166 228.384V228.823ZM293.166 230.38C293.166 230.619 293.326 230.779 293.566 230.779C293.805 230.779 293.965 230.619 293.965 230.38V230.18C293.965 229.941 293.805 229.781 293.566 229.781C293.326 229.781 293.166 229.941 293.166 230.18V230.38Z" fill="white"/>
</g>
<path d="M237.869 260.14C236.805 260.14 235.984 259.865 235.405 259.314C234.826 258.754 234.537 257.951 234.537 256.906C234.537 256.206 234.682 255.553 234.971 254.946C235.26 254.349 235.662 253.882 236.175 253.546C236.688 253.201 237.267 253.028 237.911 253.028C238.21 253.028 238.494 253.07 238.765 253.154C239.045 253.238 239.311 253.364 239.563 253.532C239.908 253.765 240.202 254.059 240.445 254.414C240.697 254.769 240.888 255.161 241.019 255.59C241.159 256.01 241.229 256.449 241.229 256.906C241.229 257.97 240.944 258.777 240.375 259.328C239.815 259.869 238.98 260.14 237.869 260.14ZM237.883 258.852C238.49 258.852 238.942 258.689 239.241 258.362C239.54 258.035 239.689 257.545 239.689 256.892C239.689 256.379 239.614 255.931 239.465 255.548C239.316 255.156 239.101 254.853 238.821 254.638C238.55 254.414 238.233 254.302 237.869 254.302C237.524 254.302 237.216 254.414 236.945 254.638C236.674 254.862 236.455 255.165 236.287 255.548C236.128 255.931 236.049 256.379 236.049 256.892C236.049 257.545 236.198 258.035 236.497 258.362C236.805 258.689 237.267 258.852 237.883 258.852ZM246.891 258.712C246.937 258.712 246.961 258.731 246.961 258.768V259.93C246.961 259.977 246.937 260 246.891 260H243.545V249.36H245.071V258.712H246.891ZM248.528 263.038C248.286 263.038 248.085 262.963 247.926 262.814C247.768 262.665 247.688 262.441 247.688 262.142C247.688 261.834 247.768 261.605 247.926 261.456C248.085 261.316 248.286 261.246 248.528 261.246C248.78 261.246 248.981 261.321 249.13 261.47C249.28 261.629 249.354 261.853 249.354 262.142C249.354 262.422 249.28 262.641 249.13 262.8C248.981 262.959 248.78 263.038 248.528 263.038ZM250.936 263.038C250.675 263.038 250.47 262.959 250.32 262.8C250.171 262.641 250.096 262.422 250.096 262.142C250.096 261.853 250.171 261.629 250.32 261.47C250.47 261.321 250.675 261.246 250.936 261.246C251.198 261.246 251.398 261.325 251.538 261.484C251.688 261.652 251.762 261.871 251.762 262.142C251.762 262.413 251.688 262.627 251.538 262.786C251.398 262.954 251.198 263.038 250.936 263.038ZM246.75 260C246.704 260 246.68 259.977 246.68 259.93V258.768C246.68 258.731 246.704 258.712 246.75 258.712H248.99V253.168H250.516V258.712H252.616C252.663 258.712 252.686 258.731 252.686 258.768V259.93C252.686 259.977 252.663 260 252.616 260H246.75ZM252.479 260C252.432 260 252.409 259.977 252.409 259.93V258.768C252.409 258.731 252.432 258.712 252.479 258.712H254.159C254 258.311 253.883 257.923 253.809 257.55C253.734 257.177 253.697 256.817 253.697 256.472C253.697 256.061 253.743 255.655 253.837 255.254C253.939 254.843 254.084 254.475 254.271 254.148C254.644 253.868 255.064 253.649 255.531 253.49C255.997 253.331 256.455 253.252 256.903 253.252C257.5 253.252 258.032 253.383 258.499 253.644C258.965 253.905 259.325 254.279 259.577 254.764C259.838 255.249 259.969 255.8 259.969 256.416C259.969 256.789 259.931 257.135 259.857 257.452C259.791 257.76 259.689 258.049 259.549 258.32C259.25 258.861 258.839 259.277 258.317 259.566C257.803 259.855 257.22 260 256.567 260H252.479ZM255.181 256.416C255.181 256.78 255.213 257.149 255.279 257.522C255.344 257.886 255.465 258.283 255.643 258.712H256.483C256.884 258.712 257.229 258.619 257.519 258.432C257.808 258.245 258.032 257.984 258.191 257.648C258.349 257.303 258.429 256.892 258.429 256.416C258.429 255.856 258.279 255.403 257.981 255.058C257.691 254.713 257.327 254.54 256.889 254.54C256.618 254.54 256.352 254.587 256.091 254.68C255.829 254.773 255.587 254.895 255.363 255.044C255.288 255.259 255.237 255.478 255.209 255.702C255.19 255.926 255.181 256.164 255.181 256.416ZM269.89 253.154C269.647 253.154 269.446 253.084 269.288 252.944C269.129 252.795 269.05 252.566 269.05 252.258C269.05 251.959 269.129 251.735 269.288 251.586C269.446 251.437 269.647 251.362 269.89 251.362C270.151 251.362 270.352 251.441 270.492 251.6C270.641 251.759 270.716 251.978 270.716 252.258C270.716 252.547 270.641 252.771 270.492 252.93C270.342 253.079 270.142 253.154 269.89 253.154ZM272.298 253.154C272.036 253.154 271.831 253.079 271.682 252.93C271.532 252.771 271.458 252.547 271.458 252.258C271.458 251.978 271.532 251.759 271.682 251.6C271.831 251.441 272.036 251.362 272.298 251.362C272.559 251.362 272.76 251.446 272.9 251.614C273.049 251.773 273.124 251.987 273.124 252.258C273.124 252.529 273.049 252.748 272.9 252.916C272.76 253.075 272.559 253.154 272.298 253.154ZM269.176 260C268.354 260 267.701 259.757 267.216 259.272C266.74 258.777 266.502 258.105 266.502 257.256C266.502 257.041 266.516 256.803 266.544 256.542C266.581 256.281 266.628 256.029 266.684 255.786C266.749 255.543 266.814 255.329 266.88 255.142H268.252C268.186 255.459 268.135 255.781 268.098 256.108C268.06 256.435 268.042 256.761 268.042 257.088C268.042 257.573 268.163 257.965 268.406 258.264C268.648 258.563 268.966 258.712 269.358 258.712H274.216V253.168H275.714V260H269.176ZM278.298 249.36H279.824V260H278.298V249.36ZM282.465 263.36C282.157 263.36 281.858 263.318 281.569 263.234C281.279 263.159 280.976 263.029 280.659 262.842L281.177 261.764C281.41 261.885 281.606 261.965 281.765 262.002C281.933 262.039 282.115 262.058 282.311 262.058C282.721 262.058 283.043 261.895 283.277 261.568C283.51 261.251 283.627 260.831 283.627 260.308V253.168H285.111V260.294C285.111 260.929 285.003 261.475 284.789 261.932C284.583 262.389 284.28 262.739 283.879 262.982C283.487 263.234 283.015 263.36 282.465 263.36ZM289.889 263.36C289.357 263.36 288.871 263.304 288.433 263.192C288.003 263.08 287.597 262.903 287.215 262.66L287.859 261.526C288.185 261.694 288.512 261.825 288.839 261.918C289.165 262.021 289.515 262.072 289.889 262.072C290.495 262.072 290.962 261.909 291.289 261.582C291.625 261.265 291.793 260.835 291.793 260.294V260H290.421C289.422 260 288.652 259.725 288.111 259.174C287.569 258.623 287.299 257.825 287.299 256.78C287.299 256.024 287.467 255.38 287.803 254.848C288.148 254.307 288.624 253.891 289.231 253.602C289.837 253.313 290.542 253.168 291.345 253.168H293.277V260.238C293.277 261.227 292.978 261.993 292.381 262.534C291.793 263.085 290.962 263.36 289.889 263.36ZM291.793 258.712V254.456H291.233C290.486 254.456 289.903 254.657 289.483 255.058C289.063 255.459 288.853 256.024 288.853 256.752C288.853 257.424 288.993 257.919 289.273 258.236C289.562 258.553 290.001 258.712 290.589 258.712H291.793ZM295.097 258.712H299.759C299.703 258.329 299.628 257.975 299.535 257.648C299.441 257.321 299.339 257.018 299.227 256.738C298.956 256.066 298.597 255.469 298.149 254.946C297.71 254.423 297.159 253.966 296.497 253.574L297.057 252.216C297.813 252.58 298.471 253.065 299.031 253.672C299.591 254.269 300.057 254.993 300.431 255.842C300.813 256.682 301.093 257.653 301.271 258.754V260H295.097V258.712Z" fill="white"/>
<g clip-path="url(#clip3_16_3512)">
<path d="M381.708 232.55V227.255C381.707 226.897 381.565 226.555 381.312 226.302C381.059 226.049 380.717 225.907 380.359 225.906H378.093C377.156 225.906 376.247 225.573 375.535 224.968C374.268 223.893 372.661 223.303 371 223.302C369.339 223.303 367.732 223.893 366.465 224.968C365.751 225.574 364.844 225.907 363.907 225.906H361.641C361.283 225.907 360.941 226.049 360.688 226.302C360.435 226.555 360.293 226.897 360.292 227.255V232.55C359.892 232.84 359.567 233.221 359.342 233.661C359.117 234.101 359 234.589 359 235.083V242.398C359 242.619 359.088 242.831 359.245 242.987C359.401 243.143 359.613 243.231 359.834 243.231H360.635C360.856 243.231 361.068 243.143 361.225 242.987C361.381 242.831 361.469 242.619 361.469 242.398V241.72C361.469 241.354 361.767 241.056 362.133 241.056H379.867C380.233 241.056 380.531 241.354 380.531 241.72V242.397C380.531 242.618 380.619 242.83 380.775 242.987C380.932 243.143 381.144 243.231 381.365 243.231H382.166C382.387 243.231 382.599 243.143 382.755 242.987C382.912 242.831 383 242.619 383 242.398V235.083C383 234.589 382.883 234.101 382.658 233.661C382.433 233.221 382.108 232.84 381.708 232.55ZM360.996 227.255C360.996 227.084 361.064 226.92 361.185 226.799C361.306 226.678 361.47 226.61 361.641 226.61H363.907C365.011 226.61 366.079 226.218 366.921 225.503C368.06 224.537 369.506 224.006 371 224.006C372.494 224.006 373.942 224.538 375.079 225.504C375.921 226.218 376.989 226.61 378.093 226.61H380.359C380.53 226.611 380.694 226.679 380.815 226.799C380.936 226.92 381.004 227.084 381.004 227.255V232.165C380.642 232.023 380.256 231.951 379.867 231.951H378.665V229.239C378.665 228.985 378.564 228.741 378.384 228.561C378.204 228.381 377.96 228.28 377.706 228.28H373.455C373.201 228.28 372.957 228.381 372.777 228.561C372.598 228.741 372.496 228.985 372.496 229.239V229.645C372.496 229.738 372.533 229.828 372.599 229.894C372.665 229.959 372.755 229.997 372.848 229.997C372.941 229.997 373.031 229.959 373.097 229.894C373.162 229.828 373.2 229.738 373.2 229.645V229.239C373.2 229.098 373.314 228.983 373.455 228.983H377.706C377.847 228.983 377.962 229.098 377.962 229.239V231.95H373.2V231.288C373.2 231.195 373.162 231.106 373.097 231.04C373.031 230.974 372.941 230.937 372.848 230.937C372.755 230.937 372.665 230.974 372.599 231.04C372.534 231.106 372.496 231.195 372.496 231.288V231.95H369.504V229.239C369.503 228.985 369.402 228.741 369.222 228.561C369.043 228.381 368.799 228.28 368.545 228.28H364.294C364.04 228.28 363.796 228.381 363.616 228.561C363.437 228.741 363.335 228.985 363.335 229.239V231.95H362.133C361.744 231.95 361.358 232.023 360.996 232.165V227.255ZM364.038 231.95V229.239C364.038 229.098 364.153 228.983 364.294 228.983H368.545C368.686 228.983 368.8 229.098 368.8 229.239V231.95H364.038ZM382.166 242.528H381.365C381.33 242.528 381.297 242.514 381.272 242.49C381.248 242.465 381.234 242.432 381.234 242.397V241.72C381.234 241.358 381.09 241.01 380.833 240.754C380.577 240.498 380.23 240.354 379.867 240.353H362.133C361.77 240.354 361.423 240.498 361.167 240.754C360.911 241.011 360.766 241.358 360.766 241.72V242.397C360.766 242.414 360.763 242.432 360.756 242.447C360.75 242.463 360.74 242.478 360.728 242.49C360.716 242.502 360.701 242.512 360.685 242.518C360.669 242.525 360.652 242.528 360.635 242.528H359.834C359.799 242.528 359.766 242.514 359.742 242.49C359.717 242.465 359.703 242.432 359.703 242.397V238.03H360.777C360.871 238.03 360.96 237.993 361.026 237.927C361.092 237.861 361.129 237.772 361.129 237.679C361.129 237.586 361.092 237.496 361.026 237.43C360.96 237.364 360.871 237.327 360.777 237.327H359.703V235.083C359.704 234.439 359.96 233.821 360.416 233.366C360.871 232.911 361.489 232.654 362.133 232.654H379.867C380.511 232.654 381.129 232.911 381.584 233.366C382.04 233.821 382.296 234.439 382.297 235.083V237.328H362.43C362.383 237.326 362.336 237.334 362.292 237.351C362.248 237.368 362.208 237.394 362.174 237.427C362.14 237.459 362.113 237.499 362.095 237.542C362.077 237.585 362.067 237.632 362.067 237.679C362.067 237.726 362.077 237.773 362.095 237.816C362.113 237.859 362.14 237.899 362.174 237.931C362.208 237.964 362.248 237.99 362.292 238.007C362.336 238.024 362.383 238.032 362.43 238.03H382.297V242.398C382.297 242.432 382.283 242.466 382.259 242.49C382.234 242.514 382.201 242.528 382.166 242.528L382.166 242.528Z" fill="white"/>
</g>
<path d="M335.416 241H327.72V239.656L330.68 236.68C331.256 236.093 331.731 235.587 332.104 235.16C332.488 234.723 332.771 234.307 332.952 233.912C333.144 233.517 333.24 233.085 333.24 232.616C333.24 232.051 333.075 231.624 332.744 231.336C332.413 231.037 331.976 230.888 331.432 230.888C330.92 230.888 330.451 230.989 330.024 231.192C329.608 231.384 329.181 231.656 328.744 232.008L327.8 230.856C328.109 230.589 328.445 230.349 328.808 230.136C329.171 229.912 329.571 229.736 330.008 229.608C330.456 229.48 330.952 229.416 331.496 229.416C332.221 229.416 332.845 229.544 333.368 229.8C333.891 230.056 334.291 230.413 334.568 230.872C334.856 231.32 335 231.853 335 232.472C335 233.08 334.877 233.645 334.632 234.168C334.387 234.691 334.04 235.208 333.592 235.72C333.144 236.221 332.611 236.771 331.992 237.368L329.912 239.384V239.464H335.416V241ZM339.228 239.32C339.132 239.693 339.01 240.099 338.86 240.536C338.711 240.973 338.546 241.405 338.364 241.832C338.194 242.269 338.023 242.68 337.852 243.064H336.812C336.919 242.659 337.02 242.221 337.116 241.752C337.223 241.293 337.319 240.84 337.404 240.392C337.49 239.933 337.559 239.517 337.612 239.144H339.116L339.228 239.32ZM348.422 232.216C348.422 232.728 348.32 233.176 348.118 233.56C347.915 233.933 347.632 234.237 347.27 234.472C346.918 234.707 346.502 234.877 346.022 234.984V235.048C346.939 235.155 347.627 235.437 348.086 235.896C348.544 236.355 348.774 236.963 348.774 237.72C348.774 238.381 348.614 238.973 348.294 239.496C347.984 240.019 347.499 240.429 346.838 240.728C346.187 241.016 345.344 241.16 344.31 241.16C343.702 241.16 343.136 241.112 342.614 241.016C342.091 240.92 341.595 240.76 341.126 240.536V238.984C341.606 239.219 342.118 239.405 342.662 239.544C343.216 239.672 343.739 239.736 344.23 239.736C345.2 239.736 345.894 239.555 346.31 239.192C346.736 238.819 346.95 238.307 346.95 237.656C346.95 237.229 346.838 236.883 346.614 236.616C346.39 236.349 346.048 236.152 345.59 236.024C345.142 235.885 344.576 235.816 343.894 235.816H342.87V234.408H343.91C344.56 234.408 345.088 234.328 345.494 234.168C345.899 233.997 346.198 233.768 346.39 233.48C346.582 233.181 346.678 232.84 346.678 232.456C346.678 231.944 346.507 231.549 346.166 231.272C345.835 230.995 345.36 230.856 344.742 230.856C344.347 230.856 343.99 230.899 343.67 230.984C343.35 231.069 343.056 231.181 342.789 231.32C342.523 231.459 342.262 231.608 342.006 231.768L341.174 230.584C341.59 230.264 342.096 229.992 342.694 229.768C343.302 229.533 344 229.416 344.79 229.416C345.974 229.416 346.875 229.672 347.494 230.184C348.112 230.696 348.422 231.373 348.422 232.216Z" fill="white"/>
<path d="M330.91 260.672C330.91 260.271 330.98 259.925 331.12 259.636C331.269 259.347 331.479 259.123 331.75 258.964C332.021 258.805 332.347 258.721 332.73 258.712C332.571 258.32 332.45 257.937 332.366 257.564C332.291 257.191 332.254 256.827 332.254 256.472C332.254 256.061 332.305 255.655 332.408 255.254C332.511 254.843 332.651 254.475 332.828 254.148C333.201 253.877 333.621 253.663 334.088 253.504C334.555 253.336 335.012 253.252 335.46 253.252C336.057 253.252 336.594 253.383 337.07 253.644C337.537 253.905 337.896 254.279 338.148 254.764C338.4 255.249 338.526 255.8 338.526 256.416C338.526 256.789 338.489 257.135 338.414 257.452C338.349 257.76 338.246 258.049 338.106 258.32C337.817 258.861 337.411 259.277 336.888 259.566C336.365 259.855 335.777 260 335.124 260H333.43C333.075 260 332.814 260.084 332.646 260.252C332.478 260.42 332.394 260.681 332.394 261.036V264.48H330.91V260.672ZM333.738 256.416C333.738 256.78 333.771 257.149 333.836 257.522C333.911 257.886 334.032 258.283 334.2 258.712H335.04C335.441 258.712 335.787 258.619 336.076 258.432C336.365 258.245 336.589 257.984 336.748 257.648C336.907 257.303 336.986 256.892 336.986 256.416C336.986 255.856 336.837 255.403 336.538 255.058C336.249 254.713 335.885 254.54 335.446 254.54C335.185 254.54 334.923 254.582 334.662 254.666C334.41 254.75 334.163 254.876 333.92 255.044C333.845 255.259 333.794 255.478 333.766 255.702C333.747 255.926 333.738 256.164 333.738 256.416ZM342.977 263.36C342.445 263.36 341.959 263.304 341.521 263.192C341.091 263.08 340.685 262.903 340.303 262.66L340.947 261.526C341.273 261.694 341.6 261.825 341.927 261.918C342.253 262.021 342.603 262.072 342.977 262.072C343.583 262.072 344.05 261.913 344.377 261.596C344.713 261.279 344.881 260.863 344.881 260.35V260H343.509C342.846 260 342.281 259.879 341.815 259.636C341.348 259.384 340.993 259.02 340.751 258.544C340.508 258.068 340.387 257.48 340.387 256.78C340.387 256.024 340.555 255.38 340.891 254.848C341.236 254.307 341.712 253.891 342.319 253.602C342.925 253.313 343.63 253.168 344.433 253.168H346.365V258.712H347.709C347.755 258.712 347.779 258.731 347.779 258.768V259.93C347.779 259.977 347.755 260 347.709 260H346.365V260.308C346.365 260.943 346.229 261.489 345.959 261.946C345.697 262.403 345.315 262.753 344.811 262.996C344.307 263.239 343.695 263.36 342.977 263.36ZM344.881 258.712V254.456H344.321C343.574 254.456 342.991 254.657 342.571 255.058C342.151 255.459 341.941 256.024 341.941 256.752C341.941 257.424 342.081 257.919 342.361 258.236C342.65 258.553 343.089 258.712 343.677 258.712H344.881ZM350.129 251.88C349.877 251.88 349.676 251.801 349.527 251.642C349.377 251.483 349.303 251.264 349.303 250.984C349.303 250.695 349.373 250.475 349.513 250.326C349.662 250.167 349.867 250.088 350.129 250.088C350.399 250.088 350.605 250.167 350.745 250.326C350.894 250.485 350.969 250.704 350.969 250.984C350.969 251.255 350.894 251.474 350.745 251.642C350.595 251.801 350.39 251.88 350.129 251.88ZM347.567 260C347.52 260 347.497 259.977 347.497 259.93V258.768C347.497 258.731 347.52 258.712 347.567 258.712H349.387V253.168H350.913V260H347.567ZM367.449 251.88C367.188 251.88 366.983 251.801 366.833 251.642C366.684 251.483 366.609 251.264 366.609 250.984C366.609 250.695 366.684 250.475 366.833 250.326C366.983 250.167 367.188 250.088 367.449 250.088C367.711 250.088 367.911 250.167 368.051 250.326C368.201 250.485 368.275 250.704 368.275 250.984C368.275 251.255 368.201 251.474 368.051 251.642C367.911 251.801 367.711 251.88 367.449 251.88ZM360.449 260C359.628 260 358.975 259.757 358.489 259.272C358.013 258.777 357.775 258.105 357.775 257.256C357.775 257.041 357.789 256.803 357.817 256.542C357.855 256.281 357.901 256.029 357.957 255.786C358.023 255.543 358.088 255.329 358.153 255.142H359.525C359.46 255.459 359.409 255.781 359.371 256.108C359.334 256.435 359.315 256.761 359.315 257.088C359.315 257.573 359.437 257.965 359.679 258.264C359.922 258.563 360.239 258.712 360.631 258.712H364.873C364.733 258.544 364.607 258.353 364.495 258.138C364.393 257.914 364.309 257.681 364.243 257.438C364.187 257.186 364.159 256.934 364.159 256.682C364.159 255.963 364.313 255.343 364.621 254.82C364.939 254.288 365.391 253.882 365.979 253.602C366.567 253.313 367.267 253.168 368.079 253.168H370.137V260H360.449ZM368.653 258.712V254.456H368.121C367.617 254.456 367.183 254.545 366.819 254.722C366.465 254.899 366.189 255.156 365.993 255.492C365.807 255.828 365.713 256.234 365.713 256.71C365.713 257.149 365.783 257.517 365.923 257.816C366.063 258.115 366.278 258.339 366.567 258.488C366.857 258.637 367.216 258.712 367.645 258.712H368.653ZM375.222 260V260.294C375.222 260.929 375.115 261.475 374.9 261.932C374.695 262.389 374.391 262.739 373.99 262.982C373.598 263.234 373.127 263.36 372.576 263.36C372.268 263.36 371.969 263.318 371.68 263.234C371.391 263.159 371.087 263.029 370.77 262.842L371.288 261.764C371.521 261.885 371.717 261.965 371.876 262.002C372.044 262.039 372.226 262.058 372.422 262.058C372.833 262.058 373.155 261.895 373.388 261.568C373.621 261.251 373.738 260.831 373.738 260.308V253.168H375.222V258.712H376.986C377.033 258.712 377.056 258.731 377.056 258.768V259.93C377.056 259.977 377.033 260 376.986 260H375.222ZM381.066 251.88C380.805 251.88 380.599 251.801 380.45 251.642C380.301 251.483 380.226 251.264 380.226 250.984C380.226 250.695 380.301 250.475 380.45 250.326C380.599 250.167 380.805 250.088 381.066 250.088C381.327 250.088 381.528 250.167 381.668 250.326C381.817 250.485 381.892 250.704 381.892 250.984C381.892 251.255 381.817 251.474 381.668 251.642C381.528 251.801 381.327 251.88 381.066 251.88ZM376.852 260C376.805 260 376.782 259.977 376.782 259.93V258.768C376.782 258.731 376.805 258.712 376.852 258.712H379.008C378.803 258.563 378.621 258.371 378.462 258.138C378.303 257.905 378.182 257.639 378.098 257.34C378.014 257.032 377.972 256.71 377.972 256.374C377.972 255.674 378.112 255.077 378.392 254.582C378.681 254.078 379.087 253.695 379.61 253.434C380.142 253.163 380.763 253.028 381.472 253.028C381.883 253.028 382.275 253.07 382.648 253.154C383.021 253.238 383.325 253.336 383.558 253.448L383.11 254.694C382.802 254.563 382.508 254.47 382.228 254.414C381.957 254.349 381.687 254.316 381.416 254.316C380.996 254.316 380.641 254.395 380.352 254.554C380.063 254.713 379.843 254.951 379.694 255.268C379.554 255.585 379.484 255.977 379.484 256.444C379.484 256.892 379.554 257.289 379.694 257.634C379.843 257.97 380.049 258.236 380.31 258.432C380.571 258.619 380.879 258.712 381.234 258.712H383.74V260H376.852Z" fill="white"/>
<path d="M141.712 150.08C141.28 150.08 140.936 149.944 140.68 149.672C140.424 149.4 140.296 149.024 140.296 148.544C140.296 148.048 140.416 147.672 140.656 147.416C140.912 147.144 141.264 147.008 141.712 147.008C142.176 147.008 142.528 147.144 142.768 147.416C143.024 147.688 143.152 148.064 143.152 148.544C143.152 149.008 143.024 149.384 142.768 149.672C142.512 149.944 142.16 150.08 141.712 150.08ZM127.96 169.76C126.84 169.76 125.872 169.504 125.056 168.992C124.256 168.48 123.64 167.744 123.208 166.784C122.776 165.84 122.56 164.72 122.56 163.424C122.56 162.464 122.648 161.496 122.824 160.52C123.016 159.528 123.28 158.648 123.616 157.88H126.016C125.744 158.616 125.536 159.456 125.392 160.4C125.264 161.344 125.2 162.352 125.2 163.424C125.2 164.72 125.472 165.728 126.016 166.448C126.576 167.184 127.352 167.552 128.344 167.552H129.352C130.696 167.552 131.68 167.232 132.304 166.592C132.928 165.952 133.24 165 133.24 163.736V152.288H135.808V157.112C136.288 155.992 136.856 155.056 137.512 154.304C138.184 153.552 138.928 152.992 139.744 152.624C140.56 152.24 141.448 152.048 142.408 152.048C144.264 152.048 145.664 152.552 146.608 153.56C147.568 154.552 148.048 156.104 148.048 158.216V164H135.784C135.752 165.92 135.216 167.36 134.176 168.32C133.136 169.28 131.56 169.76 129.448 169.76H127.96ZM145.504 161.792V158.264C145.504 156.888 145.2 155.88 144.592 155.24C143.984 154.584 143.056 154.256 141.808 154.256C141.008 154.256 140.256 154.464 139.552 154.88C138.848 155.296 138.184 155.92 137.56 156.752C136.936 157.568 136.352 158.592 135.808 159.824V161.792H145.504ZM157.988 161.792C158.068 161.792 158.108 161.824 158.108 161.888V163.88C158.108 163.96 158.068 164 157.988 164H152.252V145.76H154.868V161.792H157.988ZM159.427 169.208C159.027 169.208 158.691 169.08 158.419 168.824C158.147 168.568 158.011 168.184 158.011 167.672C158.011 167.144 158.147 166.752 158.419 166.496C158.691 166.256 159.027 166.136 159.427 166.136C159.875 166.136 160.227 166.264 160.483 166.52C160.739 166.792 160.867 167.176 160.867 167.672C160.867 168.152 160.739 168.528 160.483 168.8C160.227 169.072 159.875 169.208 159.427 169.208ZM163.555 169.208C163.123 169.208 162.779 169.072 162.523 168.8C162.267 168.528 162.139 168.152 162.139 167.672C162.139 167.176 162.267 166.792 162.523 166.52C162.779 166.264 163.123 166.136 163.555 166.136C164.019 166.136 164.371 166.272 164.611 166.544C164.867 166.832 164.995 167.208 164.995 167.672C164.995 168.136 164.867 168.504 164.611 168.776C164.355 169.064 164.003 169.208 163.555 169.208ZM157.747 164C157.667 164 157.627 163.96 157.627 163.88V161.888C157.627 161.824 157.667 161.792 157.747 161.792H162.211V152.288H164.827V164H157.747ZM173.75 164V164.504C173.75 165.592 173.566 166.528 173.198 167.312C172.846 168.096 172.326 168.696 171.638 169.112C170.966 169.544 170.158 169.76 169.214 169.76C168.686 169.76 168.174 169.688 167.678 169.544C167.182 169.416 166.662 169.192 166.118 168.872L167.006 167.024C167.406 167.232 167.742 167.368 168.014 167.432C168.302 167.496 168.614 167.528 168.95 167.528C169.654 167.528 170.206 167.248 170.606 166.688C171.006 166.144 171.206 165.424 171.206 164.528V152.288H173.75V161.792H176.774C176.854 161.792 176.894 161.824 176.894 161.888V163.88C176.894 163.96 176.854 164 176.774 164H173.75ZM176.544 164C176.464 164 176.424 163.96 176.424 163.88V161.888C176.424 161.824 176.464 161.792 176.544 161.792H179.664V145.76H182.28V164H176.544ZM187.08 145.76H189.696V164H187.08V145.76ZM201.802 163.736C202.026 162.904 202.306 162.024 202.642 161.096C202.994 160.152 203.402 159.16 203.866 158.12H205.786C205.674 158.632 205.562 159.136 205.45 159.632C205.338 160.128 205.234 160.624 205.138 161.12C205.042 161.6 204.946 162.08 204.85 162.56C204.77 163.04 204.69 163.52 204.61 164H201.97L201.802 163.736ZM220.42 150.08C220.004 150.08 219.66 149.952 219.388 149.696C219.116 149.44 218.98 149.056 218.98 148.544C218.98 148.016 219.116 147.632 219.388 147.392C219.66 147.136 220.004 147.008 220.42 147.008C220.868 147.008 221.212 147.144 221.452 147.416C221.708 147.672 221.836 148.048 221.836 148.544C221.836 149.024 221.708 149.4 221.452 149.672C221.196 149.944 220.852 150.08 220.42 150.08ZM224.548 150.08C224.1 150.08 223.748 149.944 223.492 149.672C223.236 149.4 223.108 149.024 223.108 148.544C223.108 148.048 223.236 147.672 223.492 147.416C223.748 147.144 224.1 147.008 224.548 147.008C224.996 147.008 225.34 147.144 225.58 147.416C225.836 147.688 225.964 148.064 225.964 148.544C225.964 149.008 225.836 149.384 225.58 149.672C225.34 149.944 224.996 150.08 224.548 150.08ZM222.772 164.24C220.948 164.24 219.54 163.768 218.548 162.824C217.556 161.864 217.06 160.488 217.06 158.696C217.06 157.496 217.308 156.376 217.804 155.336C218.3 154.312 218.988 153.512 219.868 152.936C220.748 152.344 221.74 152.048 222.844 152.048C223.356 152.048 223.844 152.12 224.308 152.264C224.788 152.408 225.244 152.624 225.676 152.912C226.268 153.312 226.772 153.816 227.188 154.424C227.62 155.032 227.948 155.704 228.172 156.44C228.412 157.16 228.532 157.912 228.532 158.696C228.532 160.52 228.044 161.904 227.068 162.848C226.108 163.776 224.676 164.24 222.772 164.24ZM222.796 162.032C223.836 162.032 224.612 161.752 225.124 161.192C225.636 160.632 225.892 159.792 225.892 158.672C225.892 157.792 225.764 157.024 225.508 156.368C225.252 155.696 224.884 155.176 224.404 154.808C223.94 154.424 223.396 154.232 222.772 154.232C222.18 154.232 221.652 154.424 221.188 154.808C220.724 155.192 220.348 155.712 220.06 156.368C219.788 157.024 219.652 157.792 219.652 158.672C219.652 159.792 219.908 160.632 220.42 161.192C220.948 161.752 221.74 162.032 222.796 162.032ZM236.246 169.76C235.334 169.76 234.502 169.664 233.75 169.472C233.014 169.28 232.318 168.976 231.662 168.56L232.766 166.616C233.326 166.904 233.886 167.128 234.446 167.288C235.006 167.464 235.606 167.552 236.246 167.552C237.286 167.552 238.086 167.28 238.646 166.736C239.222 166.192 239.51 165.48 239.51 164.6V164H237.158C236.022 164 235.054 163.792 234.254 163.376C233.454 162.944 232.846 162.32 232.43 161.504C232.014 160.688 231.806 159.68 231.806 158.48C231.806 157.184 232.094 156.08 232.67 155.168C233.262 154.24 234.078 153.528 235.118 153.032C236.158 152.536 237.366 152.288 238.742 152.288H242.054V161.792H244.358C244.438 161.792 244.478 161.824 244.478 161.888V163.88C244.478 163.96 244.438 164 244.358 164H242.054V164.528C242.054 165.616 241.822 166.552 241.358 167.336C240.91 168.12 240.254 168.72 239.39 169.136C238.526 169.552 237.478 169.76 236.246 169.76ZM239.51 161.792V154.496H238.55C237.27 154.496 236.27 154.84 235.55 155.528C234.83 156.216 234.47 157.184 234.47 158.432C234.47 159.584 234.71 160.432 235.19 160.976C235.686 161.52 236.438 161.792 237.446 161.792H239.51ZM248.386 169.208C247.954 169.208 247.61 169.072 247.354 168.8C247.098 168.528 246.97 168.152 246.97 167.672C246.97 167.176 247.09 166.792 247.33 166.52C247.586 166.264 247.938 166.136 248.386 166.136C248.85 166.136 249.202 166.272 249.442 166.544C249.698 166.816 249.826 167.192 249.826 167.672C249.826 168.136 249.698 168.504 249.442 168.776C249.186 169.064 248.834 169.208 248.386 169.208ZM244.114 164C244.034 164 243.994 163.96 243.994 163.88V161.888C243.994 161.824 244.034 161.792 244.114 161.792H247.234V152.288H249.85V164H244.114ZM258.57 164V164.504C258.57 165.592 258.386 166.528 258.018 167.312C257.666 168.096 257.146 168.696 256.458 169.112C255.786 169.544 254.978 169.76 254.034 169.76C253.506 169.76 252.994 169.688 252.498 169.544C252.002 169.416 251.482 169.192 250.938 168.872L251.826 167.024C252.226 167.232 252.562 167.368 252.834 167.432C253.122 167.496 253.434 167.528 253.77 167.528C254.474 167.528 255.026 167.248 255.426 166.688C255.826 166.144 256.026 165.424 256.026 164.528V152.288H258.57V161.792H261.594C261.674 161.792 261.714 161.824 261.714 161.888V163.88C261.714 163.96 261.674 164 261.594 164H258.57ZM261.364 164C261.284 164 261.244 163.96 261.244 163.88V161.888C261.244 161.824 261.284 161.792 261.364 161.792H264.484V145.76H267.1V164H261.364ZM271.9 145.76H274.516V164H271.9V145.76ZM287.127 167.024C287.127 166.352 287.255 165.696 287.511 165.056C287.783 164.432 288.191 163.824 288.735 163.232C289.279 162.624 289.983 162.016 290.847 161.408C290.127 160.704 289.463 159.936 288.855 159.104C288.263 158.272 287.775 157.424 287.391 156.56C287.007 155.68 286.751 154.84 286.623 154.04C287.231 153.496 287.887 153.032 288.59 152.648C289.311 152.264 290.047 151.968 290.799 151.76C291.567 151.536 292.327 151.424 293.079 151.424C294.135 151.424 295.167 151.576 296.175 151.88C297.199 152.168 298.111 152.568 298.911 153.08C298.895 154.648 298.527 156.144 297.807 157.568C297.087 158.992 296.047 160.248 294.687 161.336C295.087 161.48 295.495 161.592 295.911 161.672C296.343 161.752 296.783 161.792 297.231 161.792H300.087C300.167 161.792 300.207 161.824 300.207 161.888V163.88C300.207 163.96 300.167 164 300.087 164H297.182C296.783 164 296.319 163.944 295.791 163.832C295.263 163.72 294.727 163.568 294.183 163.376C293.655 163.184 293.167 162.96 292.719 162.704C291.631 163.424 290.863 164.112 290.415 164.768C289.967 165.424 289.743 166.112 289.743 166.832C289.743 167.744 290.015 168.424 290.559 168.872C291.103 169.32 291.943 169.544 293.079 169.544C293.687 169.544 294.279 169.496 294.855 169.4C295.447 169.32 296.031 169.224 296.607 169.112L296.919 171.08C296.215 171.256 295.607 171.392 295.095 171.488C294.583 171.584 294.103 171.648 293.655 171.68C293.207 171.728 292.743 171.752 292.263 171.752C291.207 171.752 290.295 171.56 289.527 171.176C288.759 170.792 288.167 170.248 287.751 169.544C287.335 168.84 287.127 168 287.127 167.024ZM289.359 154.88C289.455 155.328 289.607 155.784 289.815 156.248C290.023 156.712 290.271 157.176 290.559 157.64C290.863 158.104 291.199 158.544 291.567 158.96C291.935 159.376 292.335 159.768 292.767 160.136C293.487 159.624 294.095 159.072 294.591 158.48C295.103 157.888 295.503 157.256 295.791 156.584C296.079 155.896 296.247 155.16 296.295 154.376C295.799 154.12 295.287 153.936 294.759 153.824C294.231 153.696 293.679 153.632 293.103 153.632C292.687 153.632 292.255 153.688 291.807 153.8C291.375 153.896 290.951 154.04 290.535 154.232C290.119 154.408 289.727 154.624 289.359 154.88ZM302.897 169.208C302.481 169.208 302.137 169.08 301.865 168.824C301.593 168.568 301.457 168.184 301.457 167.672C301.457 167.144 301.593 166.752 301.865 166.496C302.137 166.256 302.481 166.136 302.897 166.136C303.329 166.136 303.673 166.264 303.929 166.52C304.185 166.792 304.313 167.176 304.313 167.672C304.313 168.152 304.185 168.528 303.929 168.8C303.673 169.072 303.329 169.208 302.897 169.208ZM307.025 169.208C306.577 169.208 306.225 169.072 305.969 168.8C305.713 168.528 305.585 168.152 305.585 167.672C305.585 167.176 305.713 166.792 305.969 166.52C306.225 166.264 306.577 166.136 307.025 166.136C307.473 166.136 307.817 166.272 308.057 166.544C308.313 166.832 308.441 167.208 308.441 167.672C308.441 168.136 308.313 168.504 308.057 168.776C307.817 169.064 307.473 169.208 307.025 169.208ZM299.849 164C299.769 164 299.729 163.96 299.729 163.88V161.888C299.729 161.824 299.769 161.792 299.849 161.792H303.689V152.288H306.305V161.792H309.905C309.985 161.792 310.025 161.824 310.025 161.888V163.88C310.025 163.96 309.985 164 309.905 164H299.849ZM313.965 169.208C313.533 169.208 313.189 169.072 312.933 168.8C312.677 168.528 312.549 168.152 312.549 167.672C312.549 167.176 312.669 166.792 312.909 166.52C313.165 166.264 313.517 166.136 313.965 166.136C314.429 166.136 314.781 166.272 315.021 166.544C315.277 166.816 315.405 167.192 315.405 167.672C315.405 168.136 315.277 168.504 315.021 168.776C314.765 169.064 314.413 169.208 313.965 169.208ZM309.669 164C309.589 164 309.549 163.96 309.549 163.88V161.888C309.549 161.824 309.589 161.792 309.669 161.792H312.789V152.288H315.405V161.792H318.525C318.605 161.792 318.645 161.824 318.645 161.888V163.88C318.645 163.96 318.605 164 318.525 164H309.669ZM318.294 164C318.214 164 318.174 163.96 318.174 163.88V161.888C318.174 161.824 318.214 161.792 318.294 161.792H321.414V145.76H324.03V161.792H327.15C327.23 161.792 327.27 161.824 327.27 161.888V163.88C327.27 163.96 327.23 164 327.15 164H318.294ZM326.919 164C326.839 164 326.799 163.96 326.799 163.88V161.888C326.799 161.824 326.839 161.792 326.919 161.792H330.039V145.76H332.655V164H326.919ZM360.659 161.792C360.739 161.792 360.779 161.824 360.779 161.888V163.88C360.779 163.96 360.739 164 360.659 164H344.291V161.792H349.331L346.235 149H348.971L351.971 161.792H354.923V145.76H357.539V161.792H360.659ZM363.459 169.208C363.043 169.208 362.699 169.08 362.427 168.824C362.155 168.568 362.019 168.184 362.019 167.672C362.019 167.144 362.155 166.752 362.427 166.496C362.699 166.256 363.043 166.136 363.459 166.136C363.891 166.136 364.235 166.264 364.491 166.52C364.747 166.792 364.875 167.176 364.875 167.672C364.875 168.152 364.747 168.528 364.491 168.8C364.235 169.072 363.891 169.208 363.459 169.208ZM367.587 169.208C367.139 169.208 366.787 169.072 366.531 168.8C366.275 168.528 366.147 168.152 366.147 167.672C366.147 167.176 366.275 166.792 366.531 166.52C366.787 166.264 367.139 166.136 367.587 166.136C368.035 166.136 368.379 166.272 368.619 166.544C368.875 166.832 369.003 167.208 369.003 167.672C369.003 168.136 368.875 168.504 368.619 168.776C368.379 169.064 368.035 169.208 367.587 169.208ZM360.411 164C360.331 164 360.291 163.96 360.291 163.88V161.888C360.291 161.824 360.331 161.792 360.411 161.792H364.251V152.288H366.867V161.792H370.467C370.547 161.792 370.587 161.824 370.587 161.888V163.88C370.587 163.96 370.547 164 370.467 164H360.411ZM378.272 150.08C377.84 150.08 377.496 149.944 377.24 149.672C376.984 149.4 376.856 149.024 376.856 148.544C376.856 148.048 376.976 147.672 377.216 147.416C377.472 147.144 377.824 147.008 378.272 147.008C378.736 147.008 379.088 147.144 379.328 147.416C379.584 147.688 379.712 148.064 379.712 148.544C379.712 149.008 379.584 149.384 379.328 149.672C379.072 149.944 378.72 150.08 378.272 150.08ZM370.232 164C370.152 164 370.112 163.96 370.112 163.88V161.888C370.112 161.824 370.152 161.792 370.232 161.792H373.808C373.536 161.488 373.312 161.152 373.136 160.784C372.96 160.4 372.824 160 372.728 159.584C372.632 159.168 372.584 158.744 372.584 158.312C372.584 157.08 372.848 156.016 373.376 155.12C373.92 154.208 374.696 153.512 375.704 153.032C376.712 152.536 377.912 152.288 379.304 152.288H382.832V164H370.232ZM378.56 161.792H380.288V154.496H379.376C378.512 154.496 377.768 154.648 377.144 154.952C376.536 155.256 376.064 155.696 375.728 156.272C375.408 156.848 375.248 157.544 375.248 158.36C375.248 159.112 375.368 159.744 375.608 160.256C375.848 160.768 376.216 161.152 376.712 161.408C377.208 161.664 377.824 161.792 378.56 161.792Z" fill="white"/>
<path d="M198.808 184.72C198.52 184.72 198.291 184.629 198.12 184.448C197.949 184.267 197.864 184.016 197.864 183.696C197.864 183.365 197.944 183.115 198.104 182.944C198.275 182.763 198.509 182.672 198.808 182.672C199.117 182.672 199.352 182.763 199.512 182.944C199.683 183.125 199.768 183.376 199.768 183.696C199.768 184.005 199.683 184.256 199.512 184.448C199.341 184.629 199.107 184.72 198.808 184.72ZM189.64 197.84C188.893 197.84 188.248 197.669 187.704 197.328C187.171 196.987 186.76 196.496 186.472 195.856C186.184 195.227 186.04 194.48 186.04 193.616C186.04 192.976 186.099 192.331 186.216 191.68C186.344 191.019 186.52 190.432 186.744 189.92H188.344C188.163 190.411 188.024 190.971 187.928 191.6C187.843 192.229 187.8 192.901 187.8 193.616C187.8 194.48 187.981 195.152 188.344 195.632C188.717 196.123 189.235 196.368 189.896 196.368H190.568C191.464 196.368 192.12 196.155 192.536 195.728C192.952 195.301 193.16 194.667 193.16 193.824V186.192H194.872V189.408C195.192 188.661 195.571 188.037 196.008 187.536C196.456 187.035 196.952 186.661 197.496 186.416C198.04 186.16 198.632 186.032 199.272 186.032C200.509 186.032 201.443 186.368 202.072 187.04C202.712 187.701 203.032 188.736 203.032 190.144V194H194.856C194.835 195.28 194.477 196.24 193.784 196.88C193.091 197.52 192.04 197.84 190.632 197.84H189.64ZM201.336 192.528V190.176C201.336 189.259 201.133 188.587 200.728 188.16C200.323 187.723 199.704 187.504 198.872 187.504C198.339 187.504 197.837 187.643 197.368 187.92C196.899 188.197 196.456 188.613 196.04 189.168C195.624 189.712 195.235 190.395 194.872 191.216V192.528H201.336ZM209.658 192.528C209.712 192.528 209.738 192.549 209.738 192.592V193.92C209.738 193.973 209.712 194 209.658 194H205.834V181.84H207.578V192.528H209.658ZM210.618 197.472C210.351 197.472 210.127 197.387 209.946 197.216C209.765 197.045 209.674 196.789 209.674 196.448C209.674 196.096 209.765 195.835 209.946 195.664C210.127 195.504 210.351 195.424 210.618 195.424C210.917 195.424 211.151 195.509 211.322 195.68C211.493 195.861 211.578 196.117 211.578 196.448C211.578 196.768 211.493 197.019 211.322 197.2C211.151 197.381 210.917 197.472 210.618 197.472ZM213.37 197.472C213.082 197.472 212.853 197.381 212.682 197.2C212.511 197.019 212.426 196.768 212.426 196.448C212.426 196.117 212.511 195.861 212.682 195.68C212.853 195.509 213.082 195.424 213.37 195.424C213.679 195.424 213.914 195.515 214.074 195.696C214.245 195.888 214.33 196.139 214.33 196.448C214.33 196.757 214.245 197.003 214.074 197.184C213.903 197.376 213.669 197.472 213.37 197.472ZM209.498 194C209.445 194 209.418 193.973 209.418 193.92V192.592C209.418 192.549 209.445 192.528 209.498 192.528H212.474V186.192H214.218V194H209.498ZM220.167 194V194.336C220.167 195.061 220.044 195.685 219.799 196.208C219.564 196.731 219.217 197.131 218.759 197.408C218.311 197.696 217.772 197.84 217.143 197.84C216.791 197.84 216.449 197.792 216.119 197.696C215.788 197.611 215.441 197.461 215.079 197.248L215.671 196.016C215.937 196.155 216.161 196.245 216.343 196.288C216.535 196.331 216.743 196.352 216.967 196.352C217.436 196.352 217.804 196.165 218.071 195.792C218.337 195.429 218.471 194.949 218.471 194.352V186.192H220.167V192.528H222.183C222.236 192.528 222.263 192.549 222.263 192.592V193.92C222.263 193.973 222.236 194 222.183 194H220.167ZM222.029 194C221.976 194 221.949 193.973 221.949 193.92V192.592C221.949 192.549 221.976 192.528 222.029 192.528H224.109V181.84H225.853V194H222.029ZM229.053 181.84H230.797V194H229.053V181.84ZM238.868 193.824C239.017 193.269 239.204 192.683 239.428 192.064C239.663 191.435 239.935 190.773 240.244 190.08H241.524C241.449 190.421 241.375 190.757 241.3 191.088C241.225 191.419 241.156 191.749 241.092 192.08C241.028 192.4 240.964 192.72 240.9 193.04C240.847 193.36 240.793 193.68 240.74 194H238.98L238.868 193.824ZM256.371 184.72C256.083 184.72 255.853 184.629 255.683 184.448C255.512 184.267 255.427 184.016 255.427 183.696C255.427 183.365 255.507 183.115 255.667 182.944C255.837 182.763 256.072 182.672 256.371 182.672C256.68 182.672 256.915 182.763 257.075 182.944C257.245 183.125 257.331 183.376 257.331 183.696C257.331 184.005 257.245 184.256 257.075 184.448C256.904 184.629 256.669 184.72 256.371 184.72ZM247.203 197.84C246.456 197.84 245.811 197.669 245.267 197.328C244.733 196.987 244.323 196.496 244.035 195.856C243.747 195.227 243.603 194.48 243.603 193.616C243.603 192.976 243.661 192.331 243.779 191.68C243.907 191.019 244.083 190.432 244.307 189.92H245.907C245.725 190.411 245.587 190.971 245.491 191.6C245.405 192.229 245.363 192.901 245.363 193.616C245.363 194.48 245.544 195.152 245.907 195.632C246.28 196.123 246.797 196.368 247.459 196.368H248.131C249.027 196.368 249.683 196.155 250.099 195.728C250.515 195.301 250.723 194.667 250.723 193.824V186.192H252.435V189.408C252.755 188.661 253.133 188.037 253.571 187.536C254.019 187.035 254.515 186.661 255.059 186.416C255.603 186.16 256.195 186.032 256.835 186.032C258.072 186.032 259.005 186.368 259.635 187.04C260.275 187.701 260.595 188.736 260.595 190.144V194H252.419C252.397 195.28 252.04 196.24 251.347 196.88C250.653 197.52 249.603 197.84 248.195 197.84H247.203ZM258.899 192.528V190.176C258.899 189.259 258.696 188.587 258.291 188.16C257.885 187.723 257.267 187.504 256.435 187.504C255.901 187.504 255.4 187.643 254.931 187.92C254.461 188.197 254.019 188.613 253.603 189.168C253.187 189.712 252.797 190.395 252.435 191.216V192.528H258.899ZM267.221 192.528C267.274 192.528 267.301 192.549 267.301 192.592V193.92C267.301 193.973 267.274 194 267.221 194H263.397V181.84H265.141V192.528H267.221ZM268.181 197.472C267.914 197.472 267.69 197.387 267.509 197.216C267.327 197.045 267.237 196.789 267.237 196.448C267.237 196.096 267.327 195.835 267.509 195.664C267.69 195.504 267.914 195.424 268.181 195.424C268.479 195.424 268.714 195.509 268.885 195.68C269.055 195.861 269.141 196.117 269.141 196.448C269.141 196.768 269.055 197.019 268.885 197.2C268.714 197.381 268.479 197.472 268.181 197.472ZM270.933 197.472C270.645 197.472 270.415 197.381 270.245 197.2C270.074 197.019 269.989 196.768 269.989 196.448C269.989 196.117 270.074 195.861 270.245 195.68C270.415 195.509 270.645 195.424 270.933 195.424C271.242 195.424 271.477 195.515 271.637 195.696C271.807 195.888 271.893 196.139 271.893 196.448C271.893 196.757 271.807 197.003 271.637 197.184C271.466 197.376 271.231 197.472 270.933 197.472ZM267.061 194C267.007 194 266.981 193.973 266.981 193.92V192.592C266.981 192.549 267.007 192.528 267.061 192.528H270.037V186.192H271.781V194H267.061ZM277.729 194V194.336C277.729 195.061 277.607 195.685 277.361 196.208C277.127 196.731 276.78 197.131 276.321 197.408C275.873 197.696 275.335 197.84 274.705 197.84C274.353 197.84 274.012 197.792 273.681 197.696C273.351 197.611 273.004 197.461 272.641 197.248L273.233 196.016C273.5 196.155 273.724 196.245 273.905 196.288C274.097 196.331 274.305 196.352 274.529 196.352C274.999 196.352 275.367 196.165 275.633 195.792C275.9 195.429 276.033 194.949 276.033 194.352V186.192H277.729V192.528H279.745C279.799 192.528 279.825 192.549 279.825 192.592V193.92C279.825 193.973 279.799 194 279.745 194H277.729ZM279.592 194C279.539 194 279.512 193.973 279.512 193.92V192.592C279.512 192.549 279.539 192.528 279.592 192.528H281.672V181.84H283.416V194H279.592ZM286.616 181.84H288.36V194H286.616V181.84ZM295.823 192.528H297.343V181.84H299.055V189.408C299.385 188.661 299.769 188.037 300.207 187.536C300.644 187.035 301.135 186.661 301.679 186.416C302.223 186.16 302.815 186.032 303.455 186.032C304.276 186.032 304.964 186.181 305.519 186.48C306.084 186.768 306.505 187.216 306.783 187.824C307.071 188.432 307.215 189.205 307.215 190.144V192.528H309.311C309.364 192.528 309.391 192.549 309.391 192.592V193.92C309.391 193.973 309.364 194 309.311 194H295.823V192.528ZM305.519 192.528V190.176C305.519 189.259 305.316 188.587 304.911 188.16C304.505 187.723 303.887 187.504 303.055 187.504C302.543 187.504 302.047 187.643 301.567 187.92C301.097 188.197 300.649 188.613 300.223 189.168C299.807 189.712 299.417 190.4 299.055 191.232V192.528H305.519ZM319.922 194C319.453 194 319.01 193.915 318.594 193.744C318.189 193.563 317.784 193.264 317.378 192.848C317.122 193.2 316.786 193.483 316.37 193.696C315.965 193.899 315.485 194 314.93 194H309.154C309.101 194 309.074 193.973 309.074 193.92V192.592C309.074 192.549 309.101 192.528 309.154 192.528H311.346V187.44H313.042V192.528H314.658C315.17 192.528 315.565 192.368 315.842 192.048C316.12 191.717 316.258 191.259 316.258 190.672V187.44H317.954V190.784C317.954 190.891 317.949 190.992 317.938 191.088C317.938 191.184 317.933 191.28 317.922 191.376C318.189 191.803 318.472 192.101 318.77 192.272C319.069 192.443 319.448 192.528 319.906 192.528H320.898V186.192H322.594V194H319.922ZM328.049 197.84C327.441 197.84 326.886 197.776 326.385 197.648C325.894 197.52 325.43 197.317 324.993 197.04L325.729 195.744C326.102 195.936 326.476 196.085 326.849 196.192C327.222 196.309 327.622 196.368 328.049 196.368C328.742 196.368 329.276 196.181 329.649 195.808C330.033 195.445 330.225 194.955 330.225 194.336V194H328.657C327.516 194 326.636 193.685 326.017 193.056C325.398 192.427 325.089 191.515 325.089 190.32C325.089 189.456 325.281 188.72 325.665 188.112C326.06 187.493 326.604 187.019 327.297 186.688C327.99 186.357 328.796 186.192 329.713 186.192H331.921V194.272C331.921 195.403 331.58 196.277 330.897 196.896C330.225 197.525 329.276 197.84 328.049 197.84ZM330.225 192.528V187.664H329.585C328.732 187.664 328.065 187.893 327.585 188.352C327.105 188.811 326.865 189.456 326.865 190.288C326.865 191.056 327.025 191.621 327.345 191.984C327.676 192.347 328.177 192.528 328.849 192.528H330.225ZM339.759 193.824C339.908 193.269 340.095 192.683 340.319 192.064C340.553 191.435 340.825 190.773 341.135 190.08H342.415C342.34 190.421 342.265 190.757 342.191 191.088C342.116 191.419 342.047 191.749 341.983 192.08C341.919 192.4 341.855 192.72 341.791 193.04C341.737 193.36 341.684 193.68 341.631 194H339.871L339.759 193.824ZM346.733 184.72C346.456 184.72 346.226 184.635 346.045 184.464C345.864 184.293 345.773 184.037 345.773 183.696C345.773 183.344 345.864 183.088 346.045 182.928C346.226 182.757 346.456 182.672 346.733 182.672C347.032 182.672 347.261 182.763 347.421 182.944C347.592 183.115 347.677 183.365 347.677 183.696C347.677 184.016 347.592 184.267 347.421 184.448C347.25 184.629 347.021 184.72 346.733 184.72ZM349.485 184.72C349.186 184.72 348.952 184.629 348.781 184.448C348.61 184.267 348.525 184.016 348.525 183.696C348.525 183.365 348.61 183.115 348.781 182.944C348.952 182.763 349.186 182.672 349.485 182.672C349.784 182.672 350.013 182.763 350.173 182.944C350.344 183.125 350.429 183.376 350.429 183.696C350.429 184.005 350.344 184.256 350.173 184.448C350.013 184.629 349.784 184.72 349.485 184.72ZM348.301 194.16C347.085 194.16 346.146 193.845 345.485 193.216C344.824 192.576 344.493 191.659 344.493 190.464C344.493 189.664 344.658 188.917 344.989 188.224C345.32 187.541 345.778 187.008 346.365 186.624C346.952 186.229 347.613 186.032 348.349 186.032C348.69 186.032 349.016 186.08 349.325 186.176C349.645 186.272 349.949 186.416 350.237 186.608C350.632 186.875 350.968 187.211 351.245 187.616C351.533 188.021 351.752 188.469 351.901 188.96C352.061 189.44 352.141 189.941 352.141 190.464C352.141 191.68 351.816 192.603 351.165 193.232C350.525 193.851 349.57 194.16 348.301 194.16ZM348.317 192.688C349.01 192.688 349.528 192.501 349.869 192.128C350.21 191.755 350.381 191.195 350.381 190.448C350.381 189.861 350.296 189.349 350.125 188.912C349.954 188.464 349.709 188.117 349.389 187.872C349.08 187.616 348.717 187.488 348.301 187.488C347.906 187.488 347.554 187.616 347.245 187.872C346.936 188.128 346.685 188.475 346.493 188.912C346.312 189.349 346.221 189.861 346.221 190.448C346.221 191.195 346.392 191.755 346.733 192.128C347.085 192.501 347.613 192.688 348.317 192.688ZM357.284 197.84C356.676 197.84 356.121 197.776 355.62 197.648C355.129 197.52 354.665 197.317 354.228 197.04L354.964 195.744C355.337 195.936 355.71 196.085 356.084 196.192C356.457 196.309 356.857 196.368 357.284 196.368C357.977 196.368 358.51 196.187 358.884 195.824C359.268 195.461 359.46 194.987 359.46 194.4V194H357.891C357.134 194 356.489 193.861 355.956 193.584C355.422 193.296 355.017 192.88 354.74 192.336C354.462 191.792 354.324 191.12 354.324 190.32C354.324 189.456 354.516 188.72 354.9 188.112C355.294 187.493 355.838 187.019 356.532 186.688C357.225 186.357 358.03 186.192 358.948 186.192H361.156V192.528H362.692C362.745 192.528 362.772 192.549 362.772 192.592V193.92C362.772 193.973 362.745 194 362.692 194H361.156V194.352C361.156 195.077 361.001 195.701 360.692 196.224C360.393 196.747 359.956 197.147 359.38 197.424C358.804 197.701 358.105 197.84 357.284 197.84ZM359.46 192.528V187.664H358.82C357.966 187.664 357.3 187.893 356.82 188.352C356.34 188.811 356.1 189.456 356.1 190.288C356.1 191.056 356.26 191.621 356.58 191.984C356.91 192.347 357.412 192.528 358.084 192.528H359.46ZM365.377 197.472C365.089 197.472 364.86 197.381 364.689 197.2C364.519 197.019 364.433 196.768 364.433 196.448C364.433 196.117 364.513 195.861 364.673 195.68C364.844 195.509 365.079 195.424 365.377 195.424C365.687 195.424 365.921 195.515 366.081 195.696C366.252 195.877 366.337 196.128 366.337 196.448C366.337 196.757 366.252 197.003 366.081 197.184C365.911 197.376 365.676 197.472 365.377 197.472ZM362.529 194C362.476 194 362.449 193.973 362.449 193.92V192.592C362.449 192.549 362.476 192.528 362.529 192.528H364.609V186.192H366.353V194H362.529ZM372.167 194V194.336C372.167 195.061 372.044 195.685 371.799 196.208C371.564 196.731 371.217 197.131 370.759 197.408C370.311 197.696 369.772 197.84 369.143 197.84C368.791 197.84 368.449 197.792 368.119 197.696C367.788 197.611 367.441 197.461 367.079 197.248L367.671 196.016C367.937 196.155 368.161 196.245 368.343 196.288C368.535 196.331 368.743 196.352 368.967 196.352C369.436 196.352 369.804 196.165 370.071 195.792C370.337 195.429 370.471 194.949 370.471 194.352V186.192H372.167V192.528H374.183C374.236 192.528 374.263 192.549 374.263 192.592V193.92C374.263 193.973 374.236 194 374.183 194H372.167ZM374.029 194C373.976 194 373.949 193.973 373.949 193.92V192.592C373.949 192.549 373.976 192.528 374.029 192.528H376.109V181.84H377.853V194H374.029ZM381.053 181.84H382.797V194H381.053V181.84Z" fill="white"/>
<path d="M135.896 215.344H131.384V214.48L133.224 212.688C133.661 212.272 133.987 211.936 134.2 211.68C134.424 211.413 134.573 211.179 134.648 210.976C134.733 210.763 134.776 210.539 134.776 210.304C134.776 209.963 134.675 209.707 134.472 209.536C134.28 209.365 134.024 209.28 133.704 209.28C133.384 209.28 133.091 209.344 132.824 209.472C132.568 209.589 132.301 209.755 132.024 209.968L131.464 209.232C131.773 208.965 132.109 208.752 132.472 208.592C132.845 208.432 133.261 208.352 133.72 208.352C134.403 208.352 134.936 208.523 135.32 208.864C135.715 209.195 135.912 209.653 135.912 210.24C135.912 210.592 135.837 210.917 135.688 211.216C135.549 211.504 135.341 211.803 135.064 212.112C134.797 212.411 134.467 212.747 134.072 213.12L132.776 214.352H135.896V215.344ZM137.634 222.768C137.634 222.309 137.714 221.915 137.874 221.584C138.044 221.253 138.284 220.997 138.594 220.816C138.903 220.635 139.276 220.539 139.714 220.528C139.532 220.08 139.394 219.643 139.298 219.216C139.212 218.789 139.17 218.373 139.17 217.968C139.17 217.499 139.228 217.035 139.346 216.576C139.463 216.107 139.623 215.685 139.826 215.312C140.252 215.003 140.732 214.757 141.266 214.576C141.799 214.384 142.322 214.288 142.834 214.288C143.516 214.288 144.13 214.437 144.674 214.736C145.207 215.035 145.618 215.461 145.906 216.016C146.194 216.571 146.338 217.2 146.338 217.904C146.338 218.331 146.295 218.725 146.21 219.088C146.135 219.44 146.018 219.771 145.858 220.08C145.527 220.699 145.063 221.173 144.466 221.504C143.868 221.835 143.196 222 142.45 222H140.514C140.108 222 139.81 222.096 139.618 222.288C139.426 222.48 139.33 222.779 139.33 223.184V227.12H137.634V222.768ZM140.866 217.904C140.866 218.32 140.903 218.741 140.978 219.168C141.063 219.584 141.202 220.037 141.394 220.528H142.354C142.812 220.528 143.207 220.421 143.538 220.208C143.868 219.995 144.124 219.696 144.306 219.312C144.487 218.917 144.578 218.448 144.578 217.904C144.578 217.264 144.407 216.747 144.066 216.352C143.735 215.957 143.319 215.76 142.818 215.76C142.519 215.76 142.22 215.808 141.922 215.904C141.634 216 141.351 216.144 141.074 216.336C140.988 216.581 140.93 216.832 140.898 217.088C140.876 217.344 140.866 217.616 140.866 217.904Z" fill="white"/>
<path d="M231.28 109.448C231.28 108.531 231.472 107.72 231.856 107.016C232.261 106.291 232.805 105.736 233.488 105.352C234.171 104.947 234.949 104.744 235.824 104.744C236.677 104.744 237.445 104.947 238.128 105.352C238.811 105.736 239.344 106.291 239.728 107.016C240.133 107.72 240.336 108.531 240.336 109.448C240.336 110.365 240.133 111.176 239.728 111.88C239.344 112.563 238.811 113.107 238.128 113.512C237.445 113.896 236.677 114.088 235.824 114.088C234.949 114.088 234.171 113.896 233.488 113.512C232.805 113.107 232.261 112.563 231.856 111.88C231.472 111.176 231.28 110.365 231.28 109.448ZM236.592 94.632L229.488 104.168C228.933 104.893 228.475 105.693 228.112 106.568C227.771 107.443 227.6 108.403 227.6 109.448C227.6 111.091 227.963 112.509 228.688 113.704C229.435 114.899 230.427 115.816 231.664 116.456C232.901 117.075 234.288 117.384 235.824 117.384C237.36 117.384 238.747 117.075 239.984 116.456C241.221 115.816 242.203 114.899 242.928 113.704C243.653 112.509 244.016 111.091 244.016 109.448C244.016 108.381 243.835 107.4 243.472 106.504C243.109 105.608 242.608 104.84 241.968 104.2C241.349 103.539 240.635 103.037 239.824 102.696C239.013 102.355 238.171 102.184 237.296 102.184C236.528 102.184 235.867 102.269 235.312 102.44C234.757 102.611 234.235 102.973 233.744 103.528L234.288 103.432L241.392 94.632H236.592ZM250.009 113.48L247.193 121.768L249.753 122.472L253.465 114.472L250.009 113.48ZM270.024 102.152C270.024 103.069 269.821 103.88 269.416 104.584C269.032 105.288 268.498 105.843 267.816 106.248C267.133 106.653 266.365 106.856 265.512 106.856C264.637 106.856 263.858 106.653 263.176 106.248C262.493 105.843 261.949 105.288 261.544 104.584C261.16 103.88 260.968 103.069 260.968 102.152C260.968 101.235 261.16 100.435 261.544 99.752C261.949 99.048 262.493 98.504 263.176 98.12C263.858 97.7147 264.637 97.512 265.512 97.512C266.365 97.512 267.133 97.7147 267.816 98.12C268.498 98.504 269.032 99.048 269.416 99.752C269.821 100.435 270.024 101.235 270.024 102.152ZM264.712 116.968L271.816 107.432C272.37 106.707 272.818 105.907 273.16 105.032C273.522 104.157 273.704 103.197 273.704 102.152C273.704 100.488 273.341 99.0693 272.616 97.896C271.89 96.7013 270.909 95.7947 269.672 95.176C268.434 94.536 267.048 94.216 265.512 94.216C263.976 94.216 262.589 94.536 261.352 95.176C260.114 95.7947 259.122 96.7013 258.376 97.896C257.65 99.0693 257.288 100.488 257.288 102.152C257.288 103.219 257.469 104.2 257.832 105.096C258.194 105.992 258.685 106.771 259.304 107.432C259.944 108.072 260.669 108.563 261.48 108.904C262.29 109.245 263.144 109.416 264.04 109.416C264.786 109.416 265.437 109.331 265.992 109.16C266.546 108.989 267.08 108.627 267.592 108.072L267.016 108.168L259.911 116.968H264.712ZM293.105 109.704C293.105 108.189 292.806 106.877 292.208 105.768C291.611 104.659 290.801 103.795 289.777 103.176C288.753 102.557 287.622 102.248 286.385 102.248C285.766 102.248 285.158 102.312 284.561 102.44C283.963 102.568 283.387 102.771 282.833 103.048L284.241 97.928H292.881V94.6H281.393L278.353 106.92C279.121 106.451 279.825 106.088 280.465 105.832C281.126 105.576 281.766 105.405 282.385 105.32C283.025 105.213 283.665 105.16 284.305 105.16C285.179 105.16 285.979 105.331 286.705 105.672C287.43 106.013 288.006 106.504 288.433 107.144C288.859 107.784 289.073 108.563 289.073 109.48C289.073 110.376 288.881 111.155 288.497 111.816C288.134 112.477 287.601 112.979 286.897 113.32C286.193 113.661 285.329 113.832 284.305 113.832C283.601 113.832 282.897 113.693 282.193 113.416C281.489 113.117 280.827 112.733 280.209 112.264C279.611 111.773 279.089 111.24 278.641 110.664L276.433 113.384C277.009 114.088 277.681 114.749 278.449 115.368C279.217 115.965 280.123 116.445 281.169 116.808C282.214 117.171 283.419 117.352 284.785 117.352C285.873 117.352 286.907 117.203 287.889 116.904C288.891 116.584 289.787 116.115 290.577 115.496C291.366 114.856 291.985 114.056 292.433 113.096C292.881 112.136 293.105 111.005 293.105 109.704ZM299.367 105.8C299.367 104.605 299.484 103.507 299.719 102.504C299.954 101.501 300.284 100.637 300.711 99.912C301.159 99.1867 301.692 98.632 302.311 98.248C302.93 97.8427 303.612 97.64 304.359 97.64C305.148 97.64 305.842 97.8427 306.439 98.248C307.058 98.632 307.58 99.1867 308.007 99.912C308.455 100.637 308.796 101.501 309.031 102.504C309.266 103.507 309.383 104.605 309.383 105.8C309.383 106.995 309.266 108.093 309.031 109.096C308.796 110.099 308.455 110.963 308.007 111.688C307.58 112.413 307.058 112.979 306.439 113.384C305.842 113.768 305.148 113.96 304.359 113.96C303.612 113.96 302.93 113.768 302.311 113.384C301.692 112.979 301.159 112.413 300.711 111.688C300.284 110.963 299.954 110.099 299.719 109.096C299.484 108.093 299.367 106.995 299.367 105.8ZM295.655 105.8C295.655 108.125 296.018 110.152 296.743 111.88C297.49 113.608 298.514 114.952 299.815 115.912C301.138 116.872 302.652 117.352 304.359 117.352C306.108 117.352 307.634 116.872 308.935 115.912C310.258 114.952 311.282 113.608 312.007 111.88C312.732 110.152 313.095 108.125 313.095 105.8C313.095 103.475 312.732 101.448 312.007 99.72C311.282 97.992 310.258 96.648 308.935 95.688C307.634 94.728 306.108 94.248 304.359 94.248C302.652 94.248 301.138 94.728 299.815 95.688C298.514 96.648 297.49 97.992 296.743 99.72C296.018 101.448 295.655 103.475 295.655 105.8ZM318.759 113.48L315.943 121.768L318.503 122.472L322.215 114.472L318.759 113.48ZM329.43 105.8C329.43 104.605 329.547 103.507 329.782 102.504C330.016 101.501 330.347 100.637 330.774 99.912C331.222 99.1867 331.755 98.632 332.374 98.248C332.992 97.8427 333.675 97.64 334.422 97.64C335.211 97.64 335.904 97.8427 336.502 98.248C337.12 98.632 337.643 99.1867 338.07 99.912C338.518 100.637 338.859 101.501 339.094 102.504C339.328 103.507 339.446 104.605 339.446 105.8C339.446 106.995 339.328 108.093 339.094 109.096C338.859 110.099 338.518 110.963 338.07 111.688C337.643 112.413 337.12 112.979 336.502 113.384C335.904 113.768 335.211 113.96 334.422 113.96C333.675 113.96 332.992 113.768 332.374 113.384C331.755 112.979 331.222 112.413 330.774 111.688C330.347 110.963 330.016 110.099 329.782 109.096C329.547 108.093 329.43 106.995 329.43 105.8ZM325.718 105.8C325.718 108.125 326.08 110.152 326.806 111.88C327.552 113.608 328.576 114.952 329.878 115.912C331.2 116.872 332.715 117.352 334.422 117.352C336.171 117.352 337.696 116.872 338.998 115.912C340.32 114.952 341.344 113.608 342.069 111.88C342.795 110.152 343.158 108.125 343.158 105.8C343.158 103.475 342.795 101.448 342.069 99.72C341.344 97.992 340.32 96.648 338.998 95.688C337.696 94.728 336.171 94.248 334.422 94.248C332.715 94.248 331.2 94.728 329.878 95.688C328.576 96.648 327.552 97.992 326.806 99.72C326.08 101.448 325.718 103.475 325.718 105.8ZM349.43 105.8C349.43 104.605 349.547 103.507 349.782 102.504C350.016 101.501 350.347 100.637 350.774 99.912C351.222 99.1867 351.755 98.632 352.374 98.248C352.992 97.8427 353.675 97.64 354.422 97.64C355.211 97.64 355.904 97.8427 356.502 98.248C357.12 98.632 357.643 99.1867 358.07 99.912C358.518 100.637 358.859 101.501 359.094 102.504C359.328 103.507 359.446 104.605 359.446 105.8C359.446 106.995 359.328 108.093 359.094 109.096C358.859 110.099 358.518 110.963 358.07 111.688C357.643 112.413 357.12 112.979 356.502 113.384C355.904 113.768 355.211 113.96 354.422 113.96C353.675 113.96 352.992 113.768 352.374 113.384C351.755 112.979 351.222 112.413 350.774 111.688C350.347 110.963 350.016 110.099 349.782 109.096C349.547 108.093 349.43 106.995 349.43 105.8ZM345.718 105.8C345.718 108.125 346.08 110.152 346.806 111.88C347.552 113.608 348.576 114.952 349.878 115.912C351.2 116.872 352.715 117.352 354.422 117.352C356.171 117.352 357.696 116.872 358.998 115.912C360.32 114.952 361.344 113.608 362.069 111.88C362.795 110.152 363.158 108.125 363.158 105.8C363.158 103.475 362.795 101.448 362.069 99.72C361.344 97.992 360.32 96.648 358.998 95.688C357.696 94.728 356.171 94.248 354.422 94.248C352.715 94.248 351.2 94.728 349.878 95.688C348.576 96.648 347.552 97.992 346.806 99.72C346.08 101.448 345.718 103.475 345.718 105.8ZM369.43 105.8C369.43 104.605 369.547 103.507 369.782 102.504C370.016 101.501 370.347 100.637 370.774 99.912C371.222 99.1867 371.755 98.632 372.374 98.248C372.992 97.8427 373.675 97.64 374.422 97.64C375.211 97.64 375.904 97.8427 376.502 98.248C377.12 98.632 377.643 99.1867 378.07 99.912C378.518 100.637 378.859 101.501 379.094 102.504C379.328 103.507 379.446 104.605 379.446 105.8C379.446 106.995 379.328 108.093 379.094 109.096C378.859 110.099 378.518 110.963 378.07 111.688C377.643 112.413 377.12 112.979 376.502 113.384C375.904 113.768 375.211 113.96 374.422 113.96C373.675 113.96 372.992 113.768 372.374 113.384C371.755 112.979 371.222 112.413 370.774 111.688C370.347 110.963 370.016 110.099 369.782 109.096C369.547 108.093 369.43 106.995 369.43 105.8ZM365.718 105.8C365.718 108.125 366.08 110.152 366.806 111.88C367.552 113.608 368.576 114.952 369.878 115.912C371.2 116.872 372.715 117.352 374.422 117.352C376.171 117.352 377.696 116.872 378.998 115.912C380.32 114.952 381.344 113.608 382.069 111.88C382.795 110.152 383.158 108.125 383.158 105.8C383.158 103.475 382.795 101.448 382.069 99.72C381.344 97.992 380.32 96.648 378.998 95.688C377.696 94.728 376.171 94.248 374.422 94.248C372.715 94.248 371.2 94.728 369.878 95.688C368.576 96.648 367.552 97.992 366.806 99.72C366.08 101.448 365.718 103.475 365.718 105.8Z" fill="white"/>
<path d="M204.658 111C204.238 111 203.851 110.925 203.496 110.776C203.141 110.617 202.782 110.361 202.418 110.006C202.185 110.314 201.891 110.557 201.536 110.734C201.181 110.911 200.761 111 200.276 111H198.624C198.596 112.111 198.279 112.946 197.672 113.506C197.075 114.075 196.16 114.36 194.928 114.36H194.06C193.407 114.36 192.842 114.211 192.366 113.912C191.899 113.613 191.54 113.184 191.288 112.624C191.036 112.073 190.91 111.42 190.91 110.664C190.91 110.104 190.961 109.539 191.064 108.97C191.176 108.391 191.33 107.878 191.526 107.43H192.926C192.767 107.859 192.646 108.349 192.562 108.9C192.487 109.451 192.45 110.039 192.45 110.664C192.45 111.42 192.609 112.008 192.926 112.428C193.253 112.857 193.705 113.072 194.284 113.072H194.872C195.656 113.072 196.23 112.885 196.594 112.512C196.958 112.139 197.14 111.583 197.14 110.846V105.26H198.638V109.712H200.038C200.495 109.712 200.841 109.572 201.074 109.292C201.317 109.003 201.438 108.601 201.438 108.088V105.26H202.922V108.354C202.922 108.41 202.922 108.471 202.922 108.536C202.922 108.592 202.917 108.648 202.908 108.704C203.141 109.087 203.389 109.353 203.65 109.502C203.911 109.642 204.243 109.712 204.644 109.712H205.498V104.168H206.982V111H204.658ZM209.178 110.244C209.178 109.899 209.262 109.656 209.43 109.516C209.598 109.376 209.799 109.306 210.032 109.306C210.275 109.306 210.48 109.376 210.648 109.516C210.825 109.656 210.914 109.899 210.914 110.244C210.914 110.58 210.825 110.823 210.648 110.972C210.48 111.121 210.275 111.196 210.032 111.196C209.799 111.196 209.598 111.121 209.43 110.972C209.262 110.823 209.178 110.58 209.178 110.244ZM213.162 114.36C212.854 114.36 212.555 114.318 212.266 114.234C211.977 114.159 211.673 114.029 211.356 113.842L211.874 112.764C212.107 112.885 212.303 112.965 212.462 113.002C212.63 113.039 212.812 113.058 213.008 113.058C213.419 113.058 213.741 112.895 213.974 112.568C214.207 112.251 214.324 111.831 214.324 111.308V104.168H215.808V111.294C215.808 111.929 215.701 112.475 215.486 112.932C215.281 113.389 214.977 113.739 214.576 113.982C214.184 114.234 213.713 114.36 213.162 114.36Z" fill="white"/>
<defs>
<filter id="filter0_d_16_3512" x="0.550049" y="145.08" width="31.1289" height="17.186" filterUnits="userSpaceOnUse" color-interpolation-filters="sRGB">
<feFlood flood-opacity="0" result="BackgroundImageFix"/>
<feColorMatrix in="SourceAlpha" type="matrix" values="0 0 0 0 0 0 0 0 0 0 0 0 0 0 0 0 0 0 127 0" result="hardAlpha"/>
<feOffset dy="2"/>
<feGaussianBlur stdDeviation="1.5"/>
<feComposite in2="hardAlpha" operator="out"/>
<feColorMatrix type="matrix" values="0 0 0 0 0 0 0 0 0 0 0 0 0 0 0 0 0 0 0.61 0"/>
<feBlend mode="normal" in2="BackgroundImageFix" result="effect1_dropShadow_16_3512"/>
<feBlend mode="normal" in="SourceGraphic" in2="effect1_dropShadow_16_3512" result="shape"/>
</filter>
<filter id="filter1_d_16_3512" x="5.55005" y="215.046" width="19.7708" height="16.108" filterUnits="userSpaceOnUse" color-interpolation-filters="sRGB">
<feFlood flood-opacity="0" result="BackgroundImageFix"/>
<feColorMatrix in="SourceAlpha" type="matrix" values="0 0 0 0 0 0 0 0 0 0 0 0 0 0 0 0 0 0 127 0" result="hardAlpha"/>
<feOffset dy="2"/>
<feGaussianBlur stdDeviation="1.5"/>
<feComposite in2="hardAlpha" operator="out"/>
<feColorMatrix type="matrix" values="0 0 0 0 0 0 0 0 0 0 0 0 0 0 0 0 0 0 0.61 0"/>
<feBlend mode="normal" in2="BackgroundImageFix" result="effect1_dropShadow_16_3512"/>
<feBlend mode="normal" in="SourceGraphic" in2="effect1_dropShadow_16_3512" result="shape"/>
</filter>
<clipPath id="clip0_16_3512">
<rect width="14" height="14" fill="white" transform="translate(9 61)"/>
</clipPath>
<clipPath id="clip1_16_3512">
<rect width="24" height="23.6522" fill="white" transform="translate(184 221)"/>
</clipPath>
<clipPath id="clip2_16_3512">
<rect width="24" height="22.3562" fill="white" transform="translate(276 220)"/>
</clipPath>
<clipPath id="clip3_16_3512">
<rect width="24" height="20.4706" fill="white" transform="translate(359 223)"/>
</clipPath>
</defs>
</svg>
