<?xml version="1.0" encoding="UTF-8"?>
<svg width="600px" height="540px" viewBox="0 0 600 540" version="1.1" xmlns="http://www.w3.org/2000/svg" xmlns:xlink="http://www.w3.org/1999/xlink">
    <title>Artboard</title>
    <g id="Artboard" stroke="none" stroke-width="1" fill="none" fill-rule="evenodd">
        <path d="M96.793368,38.8151099 L93.4857522,156.941312 L92.2557697,275.467663 C92.1842612,335.774232 92.2769039,380.571 92.5336978,409.857968 C92.7904917,439.144935 93.4031418,474.785786 94.3716482,516.78052 L133.565758,521.450187 L166.556582,521.450187 L169.389267,518.785228 L176.138086,521.450187 L209.806402,521.450187 L212.485035,518.785228 L217.873214,518.785228 C220.112253,519.329107 222.858101,519.69847 226.110761,519.893315 C229.36342,520.08816 232.353765,520.15301 235.081795,520.087864 L253.050449,516.78052 L255.998903,41.8751638 C252.585787,41.0716732 247.770144,40.3729689 241.551974,39.7790508 C235.333803,39.1851327 229.173702,38.8355072 223.07167,38.7301744 L214.84984,41.8751638 C208.851923,39.7155878 203.30746,38.2260545 198.21645,37.4065638 C193.12544,36.5870731 187.767388,37.0282767 182.142295,38.7301744 C177.792763,40.0099672 174.750942,40.6498635 173.016833,40.6498635 C171.282723,40.6498635 169.129307,40.0099672 166.556582,38.7301744 C163.387929,37.5577555 159.352814,36.971546 154.451238,36.971546 C149.549662,36.971546 145.042129,37.5577555 140.928639,38.7301744 L133.565758,41.8751638 C131.935345,40.5528368 128.868399,39.0633035 124.36492,37.4065638 C119.861441,35.7498241 114.969101,35.150869 109.687901,35.6096984 L96.793368,38.8151099 Z" id="Path-2" fill="#000000"></path>
        <path d="M339.286183,41.795825 L340.489364,60.9733032 L342.079146,136.961517 L345.134799,383.401109 L349.034305,478.211763 L349.034305,512.034116 L354.123536,519.733275 C368.10764,519.177574 376.963439,518.899724 380.690933,518.899724 C384.884905,518.899724 390.164329,517.284824 392.506269,516.92651 C392.660078,516.902977 395.103198,516.84323 395.251366,516.92651 C395.854823,517.265694 394.729319,517.521606 395.251366,517.644565 C396.985973,518.053123 398.392472,518.74936 399.470861,519.733275 L433.802686,517.644565 L439.020366,516.447904 L440.294464,519.733275 L472.859959,517.644565 L476.584989,516.447904 L482.933441,518.899724 L513.84887,512.034116 C514.531614,517.692578 514.531614,492.748994 513.84887,437.203364 C513.166126,381.657734 511.835169,298.319383 509.855999,187.18831 L507.027604,37.8476363 C503.769473,38.0702033 500.64704,38.0702033 497.660306,37.8476363 C493.180204,37.5137857 492.36462,37.0490745 484.426427,37.8476363 C479.134297,38.3800108 475.278808,38.3800108 472.859959,37.8476363 C470.653493,41.2916898 467.705477,42.858664 464.015912,42.5485588 C458.481565,42.0834011 460.312532,38.0975986 450.31088,37.0949025 C440.309228,36.0922063 439.736044,38.9558045 433.802686,39.5195907 C429.847114,39.8954482 426.133781,40.5932334 422.662687,41.6129463 C419.641835,39.6967465 415.511737,38.4416432 410.272393,37.8476363 C405.033049,37.2536293 400.02604,37.8109475 395.251366,39.5195907 C391.902879,40.9151611 388.007929,41.6129463 383.566517,41.6129463 C379.125104,41.6129463 375.78854,40.9151611 373.556822,39.5195907 C370.434982,38.4049544 366.702286,37.8476363 362.358734,37.8476363 C358.015182,37.8476363 353.573705,38.4049544 349.034305,39.5195907 L339.286183,41.795825 Z" id="Path-3" fill="#000000"></path>
    </g>
</svg>