<svg id="color_line" height="512" viewBox="0 0 74 74" width="512" xmlns="http://www.w3.org/2000/svg" data-name="color line"><path d="m71.01 29.9v14.2a2.628 2.628 0 0 1 -3.019 2.591l-.191-.032-13.225-1.991a.868.868 0 0 1 -.224-.053 2.6 2.6 0 0 1 -2.005-2.538v-10.154a2.6 2.6 0 0 1 2.005-2.538.868.868 0 0 1 .224-.053l13.225-1.994.191-.033a2.629 2.629 0 0 1 3.019 2.595z" fill="#fe7058"/><path d="m29.34 19.43c.01.09.03.16.04.24v.01a18.916 18.916 0 0 0 -9.7 9.71.662.662 0 0 0 -.22-.06l-13.24-1.99a32.326 32.326 0 0 1 21.14-21.13z" fill="#eeefee"/><path d="m29.38 54.32v.01c-.01.08-.03.15-.04.24l-1.98 13.22a32.326 32.326 0 0 1 -21.14-21.13l13.24-1.99a.662.662 0 0 0 .22-.06 18.916 18.916 0 0 0 9.7 9.71z" fill="#eeefee"/><path d="m27.36 68.29a.482.482 0 0 1 -.149-.023 32.769 32.769 0 0 1 -21.469-21.457.5.5 0 0 1 .058-.41.5.5 0 0 1 .35-.229l13.24-1.991a.592.592 0 0 1 .428-.029.561.561 0 0 1 .324.263 18.34 18.34 0 0 0 9.443 9.453.5.5 0 0 1 .3.458v.01c-.01.11-.019.157-.027.2l-.019.11-1.98 13.22a.5.5 0 0 1 -.228.35.506.506 0 0 1 -.271.075zm-20.483-21.223a31.764 31.764 0 0 0 20.076 20.066l1.874-12.514a19.328 19.328 0 0 1 -9.435-9.433z" fill="#323c6b"/><path d="m54.57 44.67 13.23 1.99a32.333 32.333 0 0 1 -21.13 21.13l-1.99-13.22a.938.938 0 0 0 -.06-.24 18.955 18.955 0 0 0 9.73-9.72.662.662 0 0 0 .22.06z" fill="#eeefee"/><path d="m44.62 19.67a.938.938 0 0 0 .06-.24l1.99-13.22a32.333 32.333 0 0 1 21.13 21.13l-13.23 1.99a.662.662 0 0 0 -.22.06 18.955 18.955 0 0 0 -9.73-9.72z" fill="#eeefee"/><path d="m27.88 9.71a32.288 32.288 0 0 0 -19.6 17.94l-2.06-.31a32.326 32.326 0 0 1 21.14-21.13z" fill="#e1e6e9"/><path d="m67.8 46.66a32.333 32.333 0 0 1 -21.13 21.13l-.26-1.72a32.334 32.334 0 0 0 17.97-19.92z" fill="#e1e6e9"/><path d="m67.8 27.34-3.07.46a32.31 32.31 0 0 0 -18.64-17.73l.58-3.86a32.333 32.333 0 0 1 21.13 21.13z" fill="#e1e6e9"/><path d="m46.7 6.018-.032.192-1.99 13.225a1.459 1.459 0 0 1 -.054.234 2.593 2.593 0 0 1 -2.538 2h-10.153a2.636 2.636 0 0 1 -2.549-1.984v-.011c-.01-.074-.032-.149-.042-.234l-1.984-13.23-.032-.192a2.617 2.617 0 0 1 2.591-3.018h14.2a2.623 2.623 0 0 1 2.583 3.018z" fill="#fe7058"/><path d="m46.7 6.02-.03.19-1.99 13.22a.938.938 0 0 1 -.06.24 2.583 2.583 0 0 1 -2.53 1.99h-.24l1.88-12.49.04-.19a2.631 2.631 0 0 0 -2.59-3.02h-13.85a2.6 2.6 0 0 1 2.59-2.96h14.19a2.62 2.62 0 0 1 2.59 3.02z" fill="#ea6453"/><path d="m21.684 31.923v10.154a2.6 2.6 0 0 1 -2.005 2.538.868.868 0 0 1 -.224.053l-13.235 1.994-.192.032a2.624 2.624 0 0 1 -3.008-2.594v-14.2a2.625 2.625 0 0 1 3.008-2.592l.192.033 13.235 1.994a.868.868 0 0 1 .224.053 2.6 2.6 0 0 1 2.005 2.535z" fill="#fe7058"/><path d="m5.645 47.222a3.124 3.124 0 0 1 -3.124-3.122v-14.2a3.125 3.125 0 0 1 3.579-3.089l.2.033 13.227 1.993a1.329 1.329 0 0 1 .349.09 3.04 3.04 0 0 1 2.307 3v10.15a3.081 3.081 0 0 1 -2.393 3.023.91.91 0 0 1 -.257.06l-13.423 2.028a3.173 3.173 0 0 1 -.465.034zm0-19.446a2.127 2.127 0 0 0 -2.124 2.124v14.2a2.125 2.125 0 0 0 2.434 2.1l.183-.031 13.342-2.013a2.129 2.129 0 0 0 1.7-2.079v-10.154a2.085 2.085 0 0 0 -1.618-2.05l-.177-.045-13.439-2.028a2.074 2.074 0 0 0 -.304-.024z" fill="#323c6b"/><path d="m44.113 71-14.2-.011a2.608 2.608 0 0 1 -2.591-3.007l.032-.192 1.984-13.225c.01-.085.032-.16.042-.234v-.011a2.645 2.645 0 0 1 2.549-1.994l10.153.01a2.593 2.593 0 0 1 2.538 2 1.459 1.459 0 0 1 .054.234l1.998 13.22.032.192a2.623 2.623 0 0 1 -2.591 3.018z" fill="#fe7058"/><path d="m44.112 71.5-14.195-.011a3.109 3.109 0 0 1 -3.085-3.583l.032-.2 1.984-13.218c.006-.048.016-.1.027-.158a.654.654 0 0 1 .025-.13 3.141 3.141 0 0 1 3.035-2.369l10.153.01a3.087 3.087 0 0 1 3.023 2.38 1.781 1.781 0 0 1 .064.287l2.025 13.392a3.123 3.123 0 0 1 -3.085 3.6zm-14.245-17.056-.012.088-.019.108-2.017 13.422a2.11 2.11 0 0 0 2.1 2.427l14.2.011a2.124 2.124 0 0 0 2.1-2.442l-.031-.185-2-13.233a1.113 1.113 0 0 0 -.04-.171 2.1 2.1 0 0 0 -2.058-1.633l-10.153-.01a2.14 2.14 0 0 0 -2.065 1.618z" fill="#323c6b"/><path d="m71.01 29.9v14.2a2.626 2.626 0 0 1 -3.02 2.59l-.19-.03-13.23-1.99a.662.662 0 0 1 -.22-.06 2.585 2.585 0 0 1 -2-2.53v-.48l12.24 1.85.19.03a2.631 2.631 0 0 0 3.02-2.59v-13.55l.19-.03a2.626 2.626 0 0 1 3.02 2.59z" fill="#ea6453"/><g fill="#323c6b"><path d="m68.379 47.223a3.25 3.25 0 0 1 -.461-.034l-.2-.033-13.218-1.993a1.355 1.355 0 0 1 -.348-.089 3.041 3.041 0 0 1 -2.307-3v-10.151a3.08 3.08 0 0 1 2.394-3.023.964.964 0 0 1 .262-.061l13.408-2.025a3.13 3.13 0 0 1 3.6 3.085v14.201a3.128 3.128 0 0 1 -3.131 3.12zm0-19.446a2.211 2.211 0 0 0 -.314.023l-.182.031-13.233 2c-.027.011-.158.039-.187.046a2.085 2.085 0 0 0 -1.616 2.05v10.15a2.085 2.085 0 0 0 1.616 2.05l.181.045 13.429 2.028a2.13 2.13 0 0 0 2.437-2.1v-14.2a2.113 2.113 0 0 0 -.735-1.6 2.134 2.134 0 0 0 -1.397-.523z"/><path d="m68.379 47.223a3.25 3.25 0 0 1 -.461-.034l-.2-.033-13.218-1.993a1.355 1.355 0 0 1 -.348-.089 3.041 3.041 0 0 1 -2.307-3v-10.151a3.08 3.08 0 0 1 2.394-3.023.964.964 0 0 1 .262-.061l13.408-2.025a3.13 3.13 0 0 1 3.6 3.085v14.201a3.128 3.128 0 0 1 -3.131 3.12zm0-19.446a2.211 2.211 0 0 0 -.314.023l-.182.031-13.233 2c-.027.011-.158.039-.187.046a2.085 2.085 0 0 0 -1.616 2.05v10.15a2.085 2.085 0 0 0 1.616 2.05l.181.045 13.429 2.028a2.13 2.13 0 0 0 2.437-2.1v-14.2a2.113 2.113 0 0 0 -.735-1.6 2.134 2.134 0 0 0 -1.397-.523z"/><path d="m14.979 65a.5.5 0 0 1 -.312-.11 35.789 35.789 0 0 1 -7.1-7.606.5.5 0 0 1 .824-.568 34.788 34.788 0 0 0 6.906 7.394.5.5 0 0 1 -.313.89z"/><path d="m6.433 55.062a.5.5 0 0 1 -.433-.25c-.131-.229-.262-.458-.389-.689a.5.5 0 1 1 .875-.483q.188.339.381.673a.5.5 0 0 1 -.433.749z"/><path d="m55.188 7.293a.5.5 0 0 1 -.258-.072l-.619-.36a.5.5 0 1 1 .5-.863l.631.367a.5.5 0 0 1 -.257.928z"/><path d="m63.281 13.991a.5.5 0 0 1 -.372-.166 35.042 35.042 0 0 0 -5.976-5.3.5.5 0 1 1 .572-.819 35.914 35.914 0 0 1 6.148 5.453.5.5 0 0 1 -.372.834z"/><path d="m19.68 29.89a.489.489 0 0 1 -.224-.053l-13.31-2a.5.5 0 0 1 -.35-.229.5.5 0 0 1 -.054-.415 32.769 32.769 0 0 1 21.469-21.46.5.5 0 0 1 .643.4l1.98 13.22v.02l.016.09c.008.047.017.094.023.143a.6.6 0 0 1 -.3.529 18.34 18.34 0 0 0 -9.443 9.453.5.5 0 0 1 -.458.3zm-12.8-2.957 12.515 1.881a19.328 19.328 0 0 1 9.435-9.433l-1.877-12.514a31.764 31.764 0 0 0 -20.076 20.066z"/><path d="m46.67 68.29a.5.5 0 0 1 -.494-.426l-1.99-13.22a.466.466 0 0 0 -.034-.137.5.5 0 0 1 .268-.635 18.385 18.385 0 0 0 9.473-9.464.5.5 0 0 1 .68-.245l.072.012 13.229 1.991a.5.5 0 0 1 .4.644 32.763 32.763 0 0 1 -21.455 21.457.473.473 0 0 1 -.149.023zm-1.478-13.669 1.884 12.512a31.771 31.771 0 0 0 20.067-20.066l-12.505-1.881a19.374 19.374 0 0 1 -9.446 9.435z"/><path d="m54.387 29.881a.5.5 0 0 1 -.171-.027.551.551 0 0 1 -.323-.262 18.385 18.385 0 0 0 -9.473-9.464.5.5 0 0 1 -.268-.635.4.4 0 0 0 .031-.117l1.993-13.24a.5.5 0 0 1 .643-.4 32.763 32.763 0 0 1 21.458 21.454.5.5 0 0 1 -.4.644l-13.232 1.991a.606.606 0 0 1 -.258.056zm-9.194-10.5a19.376 19.376 0 0 1 9.445 9.435l12.505-1.881a31.771 31.771 0 0 0 -20.067-20.068z"/><path d="m42.086 22.164h-10.152a3.137 3.137 0 0 1 -3.034-2.359.528.528 0 0 1 -.015-.125 1.128 1.128 0 0 1 -.038-.183l-2.014-13.397a3.117 3.117 0 0 1 3.084-3.6h14.2a3.123 3.123 0 0 1 3.083 3.594v.006l-.032.192-1.996 13.217a1.956 1.956 0 0 1 -.068.3 3.08 3.08 0 0 1 -3.018 2.355zm-12.169-18.664a2.117 2.117 0 0 0 -2.1 2.442l.031.187 2.031 13.471a2.124 2.124 0 0 0 2.055 1.566h10.152a2.094 2.094 0 0 0 2.052-1.609 1.356 1.356 0 0 0 .044-.183l2.028-13.435a2.123 2.123 0 0 0 -2.1-2.439z"/></g><path d="m55.336 36.431a.65.65 0 0 1 -.65-.65v-1.368a3.229 3.229 0 0 1 2.46-3.16 1.561 1.561 0 0 1 .324-.074l3.463-.512a.65.65 0 1 1 .194 1.285l-3.465.512a1.294 1.294 0 0 1 -.176.044 1.937 1.937 0 0 0 -1.5 1.9v1.368a.65.65 0 0 1 -.65.655z" fill="#fff"/><path d="m55.336 39.619a.65.65 0 0 1 -.65-.65v-.719a.65.65 0 0 1 1.3 0v.719a.65.65 0 0 1 -.65.65z" fill="#fff"/></svg>