<svg width="512" height="512" viewBox="0 0 512 512" fill="none" xmlns="http://www.w3.org/2000/svg">
<path d="M331.997 498.162H151.047C149.425 498.162 147.854 497.591 146.609 496.55C145.365 495.509 144.526 494.064 144.239 492.468L111.664 311.51C111.485 310.514 111.527 309.491 111.786 308.512C112.046 307.534 112.517 306.624 113.166 305.848C113.815 305.071 114.627 304.447 115.544 304.018C116.461 303.589 117.46 303.367 118.473 303.367H364.572C365.584 303.367 366.584 303.589 367.501 304.018C368.418 304.447 369.229 305.071 369.878 305.848C370.528 306.624 370.999 307.534 371.258 308.512C371.517 309.491 371.559 310.514 371.38 311.51L338.813 492.468C338.525 494.066 337.685 495.512 336.439 496.553C335.193 497.594 333.621 498.163 331.997 498.162V498.162ZM156.831 484.324H326.213L356.324 317.205H126.748L156.831 484.324Z" fill="#323C6B"/>
<path d="M128.5 92L90 96.5L86 109.5L97.5 125L112 149L128.5 173.5L149 190H170.5L202 180.5L215 161.5V149L207.5 125L188 105L157.5 92H128.5Z" fill="#FABE23"/>
<path d="M385.986 317.205H97.0586C94.1843 317.201 91.4287 316.057 89.3963 314.025C87.3638 311.992 86.2203 309.237 86.2167 306.363V267.914C86.2222 265.041 87.3664 262.287 89.3987 260.256C91.431 258.225 94.1855 257.083 97.0586 257.079H385.986C388.859 257.083 391.613 258.225 393.646 260.256C395.678 262.287 396.822 265.041 396.828 267.914V306.369C396.822 309.243 395.678 311.996 393.646 314.027C391.613 316.058 388.859 317.201 385.986 317.205V317.205ZM100.055 303.367H382.99V270.91H100.055V303.367Z" fill="#323C6B"/>
<path d="M268 112L271.5 149L282 168L293.5 177.5L312.5 180H345L367 171L386 156.5L399 136L409 112L416 85L425 56V23.5H399L370.5 28L317 48L282 74.5L268 112Z" fill="#FABE23"/>
<path d="M245.006 270.91H244.48C242.651 270.773 240.951 269.914 239.755 268.523C238.558 267.132 237.963 265.323 238.101 263.493C239.196 248.861 241.665 234.364 245.476 220.195C259.111 168.728 289.466 123.252 331.769 90.9217C332.49 90.3693 333.314 89.9644 334.192 89.7301C335.07 89.4958 335.985 89.4367 336.886 89.5562C337.786 89.6757 338.655 89.9714 339.441 90.4266C340.228 90.8817 340.917 91.4872 341.469 92.2087C342.022 92.9301 342.427 93.7533 342.661 94.6312C342.895 95.5091 342.954 96.4246 342.835 97.3253C342.715 98.2261 342.42 99.0945 341.965 99.881C341.509 100.667 340.904 101.357 340.182 101.909C300.312 132.376 271.701 175.232 258.851 223.737C255.272 237.082 252.955 250.733 251.932 264.51C251.8 266.255 251.013 267.886 249.728 269.073C248.443 270.261 246.756 270.917 245.006 270.91V270.91Z" fill="#323C6B"/>
<path d="M330.33 189.488C309.717 188.686 289.621 182.808 271.824 172.378C270.473 171.652 269.403 170.498 268.779 169.098C267.866 167.023 246.639 118.161 273.539 74.8626C296.822 37.452 348.022 16.9167 425.728 13.8377C426.679 13.7925 427.628 13.9478 428.515 14.2935C429.402 14.6392 430.206 15.1675 430.876 15.8442C431.55 16.5138 432.08 17.3153 432.431 18.1986C432.782 19.0819 432.947 20.028 432.917 20.9781C432.758 26.0081 428.24 144.612 367.187 179.809C355.983 186.261 343.259 189.603 330.33 189.488ZM280.59 161.363C312.265 177.844 339.055 180.044 360.24 167.832C406.514 141.146 416.616 54.2027 418.595 28.0354C350.097 31.8684 305.304 50.0306 285.322 82.0652C265.168 114.411 277.137 152.112 280.583 161.356L280.59 161.363Z" fill="#323C6B"/>
<path d="M252.16 228.905C250.792 228.906 249.454 228.5 248.316 227.74C247.178 226.981 246.291 225.9 245.767 224.636C237.73 205.234 225.89 187.638 210.944 172.884C195.999 158.13 178.252 146.518 158.748 138.731C157.886 138.406 157.098 137.913 156.43 137.28C155.761 136.647 155.226 135.886 154.855 135.044C154.484 134.201 154.285 133.293 154.27 132.372C154.255 131.451 154.423 130.537 154.766 129.682C155.108 128.828 155.618 128.05 156.265 127.395C156.912 126.74 157.683 126.221 158.533 125.867C159.384 125.514 160.296 125.334 161.217 125.338C162.137 125.342 163.048 125.529 163.895 125.89C185.108 134.361 204.412 146.993 220.667 163.041C236.923 179.088 249.802 198.227 258.546 219.33C258.983 220.381 259.154 221.524 259.044 222.657C258.934 223.79 258.546 224.878 257.914 225.825C257.282 226.772 256.427 227.549 255.423 228.086C254.419 228.624 253.298 228.905 252.16 228.905V228.905Z" fill="#323C6B"/>
<path d="M168.538 198.331C164.134 198.326 159.747 197.769 155.482 196.67C106.358 184.12 80.4739 103.569 79.3738 100.145C79.088 99.2353 78.9931 98.2767 79.0952 97.3289C79.1973 96.3812 79.4941 95.4647 79.967 94.6371C80.44 93.8095 81.0788 93.0885 81.8435 92.5194C82.6082 91.9503 83.4822 91.5453 84.4108 91.3299C138.378 78.523 177.567 82.8958 200.946 104.324C228.179 129.287 222.9 167.466 222.665 169.085C222.434 170.605 221.704 172.004 220.589 173.063C203.126 189.869 185.669 198.331 168.538 198.331ZM95.1213 103.092C102.352 122.347 124.873 174.565 158.928 183.248C174.682 187.261 191.585 181.068 209.18 164.809C209.726 157.08 209.982 131.294 191.502 114.432C172.717 97.3148 140.309 93.5025 95.1213 103.092V103.092Z" fill="#323C6B"/>
</svg>
